<?xml version="1.0" standalone="no"?>
<!DOCTYPE svg PUBLIC "-//W3C//DTD SVG 20010904//EN"
 "http://www.w3.org/TR/2001/REC-SVG-20010904/DTD/svg10.dtd">
<svg version="1.0" xmlns="http://www.w3.org/2000/svg"
 width="1280.000000pt" height="1280.000000pt" viewBox="0 0 1280.000000 1280.000000"
 preserveAspectRatio="xMidYMid meet">

<g transform="translate(0.000000,1280.000000) scale(0.100000,-0.100000)"
fill="#000000" stroke="none">
<path d="M5064 12640 c0 -91 2 -128 3 -82 2 45 2 119 0 165 -1 45 -3 8 -3 -83z"/>
<path d="M11520 12784 c0 -9 7 -14 17 -12 25 5 28 28 4 28 -12 0 -21 -6 -21
-16z"/>
<path d="M11780 12760 c0 -33 3 -40 20 -40 17 0 20 7 20 40 0 33 -3 40 -20 40
-17 0 -20 -7 -20 -40z"/>
<path d="M11960 12760 c0 -43 18 -53 46 -26 8 8 14 22 14 30 0 9 8 16 20 16
13 0 20 -7 20 -20 0 -12 -7 -20 -16 -20 -8 0 -22 -6 -30 -14 -16 -16 -19 -86
-4 -86 6 0 10 18 10 40 0 33 3 40 20 40 17 0 20 -7 20 -40 0 -22 5 -40 10 -40
6 0 10 -7 10 -15 0 -11 11 -15 40 -15 29 0 40 4 40 15 0 8 6 15 14 15 10 0 16
-22 21 -80 6 -69 10 -80 26 -80 15 0 19 7 19 40 l0 40 40 0 40 0 0 -120 c0
-113 -1 -120 -20 -120 -17 0 -20 -7 -20 -40 0 -39 1 -40 35 -40 34 0 35 -1 35
-40 0 -36 3 -40 25 -40 23 0 25 -4 25 -40 0 -29 4 -40 15 -40 12 0 15 -16 15
-80 0 -64 -3 -80 -15 -80 -12 0 -15 16 -15 80 l0 80 -40 0 -40 0 0 -40 c0 -29
4 -40 15 -40 11 0 15 -11 15 -40 0 -29 -4 -40 -15 -40 -12 0 -15 -16 -15 -80
l0 -80 -40 0 -40 0 0 -50 c0 -38 -4 -50 -15 -50 -8 0 -15 -9 -15 -20 0 -11 7
-20 15 -20 10 0 15 -11 15 -35 0 -34 -1 -35 -40 -35 l-40 0 0 -135 c0 -83 -4
-135 -10 -135 -5 0 -10 -18 -10 -40 0 -22 5 -40 10 -40 6 0 10 -18 10 -40 l0
-40 40 0 40 0 0 -79 c0 -54 -4 -81 -12 -85 -10 -5 -10 -7 0 -12 6 -3 12 -14
12 -25 0 -12 7 -19 20 -19 13 0 20 -7 20 -20 0 -13 -7 -20 -20 -20 -13 0 -20
-7 -20 -20 0 -13 7 -20 20 -20 11 0 20 -4 20 -10 0 -5 9 -10 20 -10 11 0 20 5
20 10 0 6 -9 10 -20 10 -14 0 -20 7 -20 21 0 19 4 21 31 15 17 -3 44 -6 60 -6
23 0 29 -5 29 -21 0 -11 7 -28 16 -36 10 -11 14 -26 10 -45 -6 -32 14 -39 40
-14 16 17 19 46 4 46 -5 0 -10 5 -10 10 0 6 9 10 20 10 11 0 23 7 26 15 8 19
54 20 54 1 0 -8 6 -17 13 -19 10 -4 10 -6 0 -6 -16 -1 -17 -51 -2 -51 6 0 17
-6 24 -14 12 -11 10 -17 -13 -34 -14 -12 -22 -25 -18 -29 4 -4 10 -3 14 2 13
18 55 37 61 28 3 -4 23 -17 44 -28 32 -17 35 -21 18 -23 -17 -3 -21 -11 -21
-42 0 -32 -4 -39 -22 -43 -13 -2 11 -6 52 -7 l75 -3 -85 -8 c-47 -4 -152 -8
-235 -10 -101 -1 -135 -4 -105 -9 37 -6 27 -8 -55 -10 -55 -2 -146 -2 -201 -1
-67 2 -104 -1 -108 -8 -5 -8 33 -11 136 -11 79 0 261 -3 406 -7 l262 -6 0 73
0 74 -35 -34 c-19 -18 -38 -30 -42 -26 -4 4 11 25 35 47 l42 40 0 1074 0 1075
-305 0 -305 0 0 -40 0 -40 -50 0 c-52 0 -55 -4 -44 -47 8 -29 20 -29 27 -2 7
26 31 20 35 -9 3 -20 -1 -22 -37 -22 -41 0 -41 0 -41 39 0 22 -6 42 -12 45
-10 5 -10 7 0 12 16 8 15 32 -2 50 -18 17 -42 18 -50 2 -5 -10 -7 -10 -12 0
-3 6 -14 12 -25 12 -16 0 -19 -7 -19 -40z m390 -1200 c0 -29 -4 -40 -15 -40
-11 0 -15 11 -15 40 0 29 4 40 15 40 11 0 15 -11 15 -40z m-80 -240 c0 -29 -4
-40 -15 -40 -11 0 -15 11 -15 40 0 29 4 40 15 40 11 0 15 -11 15 -40z m70 0
c0 -5 -4 -10 -10 -10 -5 0 -10 5 -10 10 0 6 5 10 10 10 6 0 10 -4 10 -10z m98
-180 c11 -18 10 -20 -13 -20 -18 0 -25 5 -25 20 0 11 6 20 13 20 7 0 18 -9 25
-20z m282 -137 c-4 -42 -5 -44 -8 -15 -3 30 2 62 10 62 2 0 1 -21 -2 -47z
m-290 -3 c0 -22 -4 -40 -10 -40 -5 0 -11 -19 -11 -42 -1 -24 -4 -33 -6 -22 -2
12 -13 30 -25 40 -19 18 -20 18 -43 -9 -28 -32 -55 -36 -55 -7 0 13 -7 20 -20
20 -11 0 -20 5 -20 10 0 6 9 10 20 10 11 0 20 -4 20 -10 0 -5 9 -10 20 -10 11
0 20 5 20 10 0 6 18 10 40 10 l40 0 0 40 c0 29 4 40 15 40 11 0 15 -11 15 -40z
m217 -22 c-2 -13 -4 -3 -4 22 0 25 2 35 4 23 2 -13 2 -33 0 -45z m-155 -99 c6
-4 8 -15 3 -25 -7 -17 -9 -16 -15 6 -5 14 -8 43 -7 65 l0 40 4 -40 c3 -22 9
-43 15 -46z m178 51 c13 -9 13 -11 0 -20 -22 -15 -30 -12 -30 10 0 22 8 25 30
10z m-82 -32 c-6 -18 -28 -21 -28 -4 0 9 7 16 16 16 9 0 14 -5 12 -12z m152
-22 c0 -3 -4 -8 -10 -11 -5 -3 -10 -1 -10 4 0 6 5 11 10 11 6 0 10 -2 10 -4z
m-100 -111 c0 -8 -7 -15 -15 -15 -8 0 -15 7 -15 15 0 8 7 15 15 15 8 0 15 -7
15 -15z m-160 -255 c0 -13 -40 -13 -60 0 -11 7 -5 10 23 10 20 0 37 -4 37 -10z"/>
<path d="M9713 12640 c0 -47 2 -66 4 -42 2 23 2 61 0 85 -2 23 -4 4 -4 -43z"/>
<path d="M11520 12704 c0 -8 5 -12 10 -9 6 3 10 10 10 16 0 5 -4 9 -10 9 -5 0
-10 -7 -10 -16z"/>
<path d="M11660 12710 c0 -5 5 -10 10 -10 6 0 10 -13 10 -30 0 -16 5 -30 10
-30 6 0 10 18 10 40 0 33 -3 40 -20 40 -11 0 -20 -4 -20 -10z"/>
<path d="M11740 12680 c0 -22 5 -40 10 -40 6 0 10 18 10 40 0 22 -4 40 -10 40
-5 0 -10 -18 -10 -40z"/>
<path d="M11890 12716 c0 -2 7 -9 15 -16 12 -10 15 -10 15 4 0 9 -7 16 -15 16
-8 0 -15 -2 -15 -4z"/>
<path d="M11840 12680 c0 -32 1 -33 17 -17 16 16 16 18 0 34 -16 16 -17 15
-17 -17z"/>
<path d="M11490 12655 c-10 -13 -9 -15 9 -15 12 0 21 6 21 15 0 8 -4 15 -9 15
-5 0 -14 -7 -21 -15z"/>
<path d="M11577 12650 c-11 -13 -12 -21 -4 -29 15 -15 27 -14 27 4 0 8 5 15
10 15 15 0 12 17 -4 23 -7 3 -20 -3 -29 -13z"/>
<path d="M11900 12655 c-10 -12 -10 -15 4 -15 9 0 16 7 16 15 0 8 -2 15 -4 15
-2 0 -9 -7 -16 -15z"/>
<path d="M11940 12600 c0 -33 3 -40 20 -40 17 0 20 7 20 40 0 33 -3 40 -20 40
-17 0 -20 -7 -20 -40z"/>
<path d="M11500 12600 c0 -5 5 -10 10 -10 6 0 10 5 10 10 0 6 -4 10 -10 10 -5
0 -10 -4 -10 -10z"/>
<path d="M9722 12455 c0 -16 2 -22 5 -12 2 9 2 23 0 30 -3 6 -5 -1 -5 -18z"/>
<path d="M11955 12450 c28 -12 45 -12 45 0 0 6 -15 10 -32 9 -28 0 -30 -2 -13
-9z"/>
<path d="M11963 12403 c9 -2 23 -2 30 0 6 3 -1 5 -18 5 -16 0 -22 -2 -12 -5z"/>
<path d="M12080 12390 c0 -5 5 -10 10 -10 6 0 10 5 10 10 0 6 -4 10 -10 10 -5
0 -10 -4 -10 -10z"/>
<path d="M12160 12384 c0 -9 5 -14 12 -12 18 6 21 28 4 28 -9 0 -16 -7 -16
-16z"/>
<path d="M12217 12343 c-12 -11 -8 -23 8 -23 8 0 15 7 15 15 0 16 -12 20 -23
8z"/>
<path d="M12140 12330 c0 -5 5 -10 10 -10 6 0 10 5 10 10 0 6 -4 10 -10 10 -5
0 -10 -4 -10 -10z"/>
<path d="M5077 11736 c5 -643 13 -840 31 -858 9 -9 9 -4 2 22 -5 18 -12 207
-16 419 -4 212 -10 526 -14 696 -6 224 -7 147 -3 -279z"/>
<path d="M9743 12015 c0 -22 2 -30 4 -17 2 12 2 30 0 40 -3 9 -5 -1 -4 -23z"/>
<path d="M12280 11960 c0 -33 3 -40 20 -40 17 0 20 7 20 40 0 33 -3 40 -20 40
-17 0 -20 -7 -20 -40z"/>
<path d="M9753 11745 c0 -33 2 -45 4 -27 2 18 2 45 0 60 -2 15 -4 0 -4 -33z"/>
<path d="M460 11738 c-13 -21 -16 -37 -10 -48 6 -11 -10 -58 -57 -161 -35 -79
-70 -157 -77 -172 -7 -16 -23 -34 -36 -40 -17 -9 -50 -71 -122 -227 -54 -118
-112 -243 -128 -277 l-29 -63 0 -752 c0 -414 3 -746 5 -738 12 34 67 166 75
180 10 17 8 11 61 150 43 113 53 135 91 220 14 30 35 80 48 110 12 30 31 67
41 82 10 14 18 31 18 37 0 6 29 40 64 76 35 35 86 98 114 139 99 142 382 736
382 800 0 12 5 27 11 33 6 6 15 42 19 79 7 55 6 74 -6 92 -8 12 -10 22 -5 22
5 0 5 15 -1 38 -5 20 -11 48 -13 62 -2 13 -9 26 -14 28 -6 2 -11 10 -11 18 0
8 -4 14 -8 14 -10 0 -37 60 -51 115 -24 89 -73 134 -206 187 -96 38 -130 37
-155 -4z m-168 -530 c-7 -7 -12 -8 -12 -2 0 14 12 26 19 19 2 -3 -1 -11 -7
-17z m-26 -55 c-8 -15 -15 -25 -16 -21 0 12 23 58 27 54 3 -2 -2 -17 -11 -33z
m-24 -55 c-7 -7 -12 -8 -12 -2 0 14 12 26 19 19 2 -3 -1 -11 -7 -17z m-12 -26
c0 -5 -7 -17 -15 -28 -14 -18 -14 -17 -4 9 12 27 19 34 19 19z m-44 -89 c-8
-15 -15 -25 -16 -21 0 12 23 58 27 54 3 -2 -2 -17 -11 -33z m-36 -92 c-29 -57
-33 -51 -7 11 11 28 23 46 25 40 2 -6 -6 -29 -18 -51z m-76 -165 c-26 -58 -49
-104 -51 -102 -2 1 10 34 27 72 17 38 38 86 47 107 9 20 18 35 20 33 3 -2 -17
-52 -43 -110z"/>
<path d="M9763 11565 c0 -27 2 -38 4 -22 2 15 2 37 0 50 -2 12 -4 0 -4 -28z"/>
<path d="M12003 11400 c0 -25 2 -35 4 -22 2 12 2 32 0 45 -2 12 -4 2 -4 -23z"/>
<path d="M12040 11400 c0 -22 5 -40 10 -40 6 0 10 18 10 40 0 22 -4 40 -10 40
-5 0 -10 -18 -10 -40z"/>
<path d="M11825 11290 c-3 -5 -1 -10 4 -10 6 0 11 5 11 10 0 6 -2 10 -4 10 -3
0 -8 -4 -11 -10z"/>
<path d="M12080 11240 c0 -22 5 -40 10 -40 6 0 10 18 10 40 0 22 -4 40 -10 40
-5 0 -10 -18 -10 -40z"/>
<path d="M12000 11030 c0 -5 5 -10 10 -10 6 0 10 5 10 10 0 6 -4 10 -10 10 -5
0 -10 -4 -10 -10z"/>
<path d="M12174 11025 c-9 -21 -2 -26 13 -10 8 9 9 16 3 20 -6 3 -13 -1 -16
-10z"/>
<path d="M12060 10970 c0 -5 5 -10 10 -10 6 0 10 5 10 10 0 6 -4 10 -10 10 -5
0 -10 -4 -10 -10z"/>
<path d="M12160 10870 c0 -26 2 -28 22 -21 26 10 36 31 14 31 -9 0 -16 5 -16
10 0 6 -4 10 -10 10 -5 0 -10 -13 -10 -30z"/>
<path d="M12360 10761 c0 -22 -4 -42 -9 -45 -5 -3 -8 -20 -7 -38 2 -35 20 -46
46 -28 13 9 13 11 0 20 -13 9 -13 11 0 20 13 9 13 11 0 20 -10 6 -11 10 -2 10
7 0 12 15 12 40 0 33 -3 40 -20 40 -17 0 -20 -7 -20 -39z"/>
<path d="M12178 10708 c16 -8 28 -8 45 0 19 9 17 11 -23 11 -40 0 -42 -2 -22
-11z"/>
<path d="M12492 10704 c9 -9 21 -13 27 -10 20 13 11 26 -16 26 -25 0 -26 -1
-11 -16z"/>
<path d="M1510 10670 c0 -5 5 -10 10 -10 6 0 10 5 10 10 0 6 -4 10 -10 10 -5
0 -10 -4 -10 -10z"/>
<path d="M12290 10655 c-10 -13 -9 -15 9 -15 12 0 21 6 21 15 0 8 -4 15 -9 15
-5 0 -14 -7 -21 -15z"/>
<path d="M12620 10660 c0 -5 -6 -10 -13 -10 -8 0 -11 -14 -9 -45 3 -36 8 -45
23 -45 23 0 27 45 4 54 -8 3 -15 10 -15 16 0 5 7 10 15 10 8 0 15 7 15 15 0 8
-4 15 -10 15 -5 0 -10 -4 -10 -10z"/>
<path d="M1500 10589 c0 -24 4 -38 10 -34 6 3 10 22 10 41 0 19 -4 34 -10 34
-5 0 -10 -18 -10 -41z"/>
<path d="M12355 10549 c-27 -3 27 -6 120 -6 177 0 189 4 25 9 -52 2 -117 0
-145 -3z"/>
<path d="M11861 10506 c11 -9 99 -15 99 -6 0 6 -23 10 -52 10 -28 0 -49 -2
-47 -4z"/>
<path d="M9607 10445 c-19 -39 -25 -64 -21 -81 7 -25 8 -26 69 -19 41 4 65 3
70 -4 9 -16 25 -13 25 5 0 13 -12 15 -67 13 -44 -2 -68 1 -71 9 -2 7 8 33 22
58 29 51 33 74 13 74 -7 0 -25 -25 -40 -55z"/>
<path d="M9736 10303 c-2 -10 -7 -38 -11 -63 l-6 -45 20 55 c11 30 20 58 21
63 0 15 -19 6 -24 -10z"/>
<path d="M3460 10069 c-36 -34 -87 -80 -114 -103 -26 -22 -67 -57 -89 -76 -48
-41 -209 -199 -186 -182 12 9 19 9 29 -1 10 -10 12 -9 7 4 -5 16 24 49 44 49
5 0 7 5 3 11 -4 8 1 9 15 4 18 -5 22 -3 19 10 -2 10 6 22 17 29 31 18 45 33
37 41 -4 5 1 5 11 2 12 -5 17 -3 15 5 -4 11 61 79 78 82 5 0 30 25 56 54 27
29 48 47 48 40 0 -8 5 -5 11 5 5 9 17 17 24 17 8 0 15 6 16 13 1 6 4 1 8 -13
5 -20 14 -26 44 -28 22 -2 37 1 37 8 0 6 12 -1 27 -15 41 -37 48 -30 12 10
-18 19 -39 35 -46 35 -8 0 -12 4 -9 8 4 7 -37 53 -47 52 -1 0 -31 -28 -67 -61z
m100 11 c0 -5 -4 -10 -10 -10 -5 0 -10 5 -10 10 0 6 5 10 10 10 6 0 10 -4 10
-10z m-5 -30 c3 -5 -3 -10 -15 -10 -12 0 -18 5 -15 10 3 6 10 10 15 10 5 0 12
-4 15 -10z"/>
<path d="M3533 9999 c14 -8 22 -8 30 0 8 8 3 11 -18 11 -26 -1 -28 -2 -12 -11z"/>
<path d="M3678 9963 c23 -17 30 -28 22 -33 -7 -4 -2 -7 13 -7 l25 0 -25 27
c-13 16 -34 31 -46 34 -17 4 -14 -1 11 -21z"/>
<path d="M3622 9954 c9 -9 21 -15 27 -13 6 2 -2 10 -17 17 -25 11 -25 11 -10
-4z"/>
<path d="M3740 9901 c0 -5 7 -11 15 -15 9 -3 12 -12 9 -23 -5 -14 -4 -15 4 -4
6 8 8 20 5 27 -5 15 -33 27 -33 15z"/>
<path d="M3705 9880 c3 -5 8 -10 11 -10 2 0 4 5 4 10 0 6 -5 10 -11 10 -5 0
-7 -4 -4 -10z"/>
<path d="M3294 9826 c16 -9 31 -14 34 -11 8 8 0 13 -33 20 l-30 7 29 -16z"/>
<path d="M3780 9805 c-7 -9 -10 -18 -6 -22 3 -3 6 -1 6 5 0 7 7 12 15 12 8 0
15 5 15 10 0 15 -16 12 -30 -5z"/>
<path d="M6590 9805 c-8 -9 -10 -28 -5 -55 6 -38 5 -40 -18 -40 -17 0 -27 7
-32 23 -4 14 -8 17 -12 9 -7 -19 16 -42 42 -42 30 0 45 20 34 45 -12 32 -10
44 11 55 16 9 22 6 34 -17 9 -17 15 -22 16 -12 0 17 -30 49 -47 49 -6 0 -16
-7 -23 -15z"/>
<path d="M3240 9800 c0 -5 4 -10 9 -10 5 0 18 -3 28 -6 16 -5 16 -4 -1 10 -23
18 -36 20 -36 6z"/>
<path d="M3685 9759 c-11 -17 -2 -18 25 -4 24 14 24 14 3 15 -12 0 -25 -5 -28
-11z"/>
<path d="M3160 9746 c0 -18 16 -29 30 -21 13 8 1 35 -16 35 -8 0 -14 -6 -14
-14z"/>
<path d="M3620 9729 c0 -5 5 -7 10 -4 6 3 10 8 10 11 0 2 -4 4 -10 4 -5 0 -10
-5 -10 -11z"/>
<path d="M6661 9733 c-19 -8 -70 -66 -71 -80 0 -7 5 -13 10 -13 6 0 10 6 10
13 0 19 37 50 52 44 8 -3 14 4 14 19 1 13 1 24 0 23 0 0 -7 -3 -15 -6z"/>
<path d="M3135 9700 c3 -5 8 -10 11 -10 2 0 4 5 4 10 0 6 -5 10 -11 10 -5 0
-7 -4 -4 -10z"/>
<path d="M3618 9683 c7 -3 16 -2 19 1 4 3 -2 6 -13 5 -11 0 -14 -3 -6 -6z"/>
<path d="M3678 9683 c7 -3 16 -2 19 1 4 3 -2 6 -13 5 -11 0 -14 -3 -6 -6z"/>
<path d="M3580 9661 c0 -5 7 -11 14 -14 10 -4 13 -1 9 9 -6 15 -23 19 -23 5z"/>
<path d="M6646 9651 c-23 -25 -17 -55 12 -59 30 -4 64 26 60 52 -4 29 -49 33
-72 7z m59 -1 c11 -18 -15 -50 -40 -50 -29 0 -33 21 -9 44 18 18 40 21 49 6z"/>
<path d="M3133 9645 c-19 -21 -16 -27 7 -13 11 7 20 16 20 20 0 12 -14 9 -27
-7z"/>
<path d="M3186 9615 c-3 -8 -1 -15 4 -15 6 0 10 7 10 15 0 8 -2 15 -4 15 -2 0
-6 -7 -10 -15z"/>
<path d="M3031 9594 c0 -11 3 -14 6 -6 3 7 2 16 -1 19 -3 4 -6 -2 -5 -13z"/>
<path d="M3645 9600 c-8 -13 5 -13 25 0 13 8 13 10 -2 10 -9 0 -20 -4 -23 -10z"/>
<path d="M6695 9568 c-28 -23 -41 -38 -31 -34 12 4 26 0 38 -10 16 -15 21 -16
44 -4 40 22 50 48 25 71 -11 10 -22 19 -23 19 -2 0 -26 -19 -53 -42z m73 -4
c4 -28 -41 -50 -59 -28 -9 11 -8 18 7 35 22 24 48 21 52 -7z"/>
<path d="M3465 9590 c4 -6 11 -8 16 -5 14 9 11 15 -7 15 -8 0 -12 -5 -9 -10z"/>
<path d="M3320 9575 c0 -3 9 -14 19 -24 13 -13 21 -16 24 -8 2 7 -3 17 -12 24
-17 13 -31 17 -31 8z"/>
<path d="M3105 9560 c-3 -5 -2 -10 4 -10 5 0 13 5 16 10 3 6 2 10 -4 10 -5 0
-13 -4 -16 -10z"/>
<path d="M4027 9559 c7 -7 15 -10 18 -7 3 3 -2 9 -12 12 -14 6 -15 5 -6 -5z"/>
<path d="M2990 9553 c0 -5 7 -17 15 -27 14 -19 15 -19 15 7 0 17 -5 27 -15 27
-8 0 -15 -3 -15 -7z"/>
<path d="M3665 9550 c-3 -5 1 -10 9 -10 9 0 16 5 16 10 0 6 -4 10 -9 10 -6 0
-13 -4 -16 -10z"/>
<path d="M3470 9525 c0 -16 16 -20 24 -6 3 5 -1 11 -9 15 -9 3 -15 0 -15 -9z"/>
<path d="M3596 9523 c-6 -14 -5 -15 5 -6 7 7 10 15 7 18 -3 3 -9 -2 -12 -12z"/>
<path d="M3080 9520 c-12 -8 -11 -10 7 -10 12 0 25 5 28 10 8 13 -15 13 -35 0z"/>
<path d="M3160 9520 c0 -5 7 -10 16 -10 8 0 12 5 9 10 -3 6 -10 10 -16 10 -5
0 -9 -4 -9 -10z"/>
<path d="M3710 9520 c0 -5 7 -10 15 -10 8 0 15 5 15 10 0 6 -7 10 -15 10 -8 0
-15 -4 -15 -10z"/>
<path d="M6820 9494 c-25 -20 -46 -37 -48 -39 -2 -2 4 -15 14 -29 9 -15 19
-24 22 -22 3 3 -1 13 -9 22 -12 15 -8 22 35 60 58 53 49 58 -14 8z"/>
<path d="M3293 9505 c-21 -23 -15 -37 7 -15 11 11 20 22 20 25 0 10 -15 4 -27
-10z"/>
<path d="M3376 9505 c-3 -8 -1 -15 4 -15 6 0 10 7 10 15 0 8 -2 15 -4 15 -2 0
-6 -7 -10 -15z"/>
<path d="M3430 9506 c0 -17 16 -30 23 -19 3 5 -1 14 -9 21 -12 10 -14 10 -14
-2z"/>
<path d="M3631 9504 c0 -11 3 -14 6 -6 3 7 2 16 -1 19 -3 4 -6 -2 -5 -13z"/>
<path d="M3850 9500 c-12 -8 -10 -10 8 -10 13 0 20 4 17 10 -7 12 -6 12 -25 0z"/>
<path d="M3500 9490 c0 -5 5 -10 10 -10 6 0 10 5 10 10 0 6 -4 10 -10 10 -5 0
-10 -4 -10 -10z"/>
<path d="M3671 9474 c0 -11 3 -14 6 -6 3 7 2 16 -1 19 -3 4 -6 -2 -5 -13z"/>
<path d="M6205 9465 c0 -13 4 -21 8 -18 4 3 14 -1 22 -7 24 -20 17 5 -7 28
l-23 21 0 -24z"/>
<path d="M1450 9461 c0 -11 5 -23 10 -26 6 -4 10 5 10 19 0 14 -4 26 -10 26
-5 0 -10 -9 -10 -19z"/>
<path d="M3000 9465 c0 -8 5 -15 10 -15 6 0 10 7 10 15 0 8 -4 15 -10 15 -5 0
-10 -7 -10 -15z"/>
<path d="M3330 9466 c0 -9 5 -16 10 -16 6 0 10 4 10 9 0 6 -4 13 -10 16 -5 3
-10 -1 -10 -9z"/>
<path d="M2877 9463 c-4 -3 -7 -11 -7 -17 0 -6 5 -5 12 2 6 6 9 14 7 17 -3 3
-9 2 -12 -2z"/>
<path d="M3095 9454 c9 -9 18 -14 21 -11 9 9 -6 27 -22 27 -13 0 -13 -2 1 -16z"/>
<path d="M3137 9457 c-4 -10 -17 -22 -29 -27 -14 -5 -17 -9 -7 -9 23 -1 52 24
47 39 -3 11 -6 10 -11 -3z"/>
<path d="M3470 9461 c0 -5 -8 -12 -17 -14 -15 -4 -15 -5 -2 -6 9 0 22 6 29 14
9 10 9 15 1 15 -6 0 -11 -4 -11 -9z"/>
<path d="M4080 9460 c0 -5 5 -10 11 -10 5 0 7 5 4 10 -3 6 -8 10 -11 10 -2 0
-4 -4 -4 -10z"/>
<path d="M3400 9449 c0 -6 -9 -9 -20 -6 -11 3 -20 1 -20 -4 0 -5 6 -9 13 -9
17 0 67 -23 67 -31 0 -3 -12 -12 -27 -19 -17 -7 -23 -14 -15 -17 14 -5 62 22
62 36 0 4 -11 13 -24 21 -14 7 -22 18 -19 26 3 8 0 14 -6 14 -6 0 -11 -5 -11
-11z"/>
<path d="M3890 9443 c0 -13 5 -23 10 -23 13 0 13 11 0 30 -8 12 -10 11 -10 -7z"/>
<path d="M3035 9440 c3 -5 8 -10 11 -10 2 0 4 5 4 10 0 6 -5 10 -11 10 -5 0
-7 -4 -4 -10z"/>
<path d="M3597 9433 c6 -15 29 -18 37 -4 3 5 -5 11 -18 13 -17 4 -23 1 -19 -9z"/>
<path d="M3805 9440 l-40 -7 37 -2 c20 0 40 4 43 9 3 6 5 9 3 9 -2 -1 -21 -5
-43 -9z"/>
<path d="M4005 9440 c-3 -6 1 -7 9 -4 18 7 21 14 7 14 -6 0 -13 -4 -16 -10z"/>
<path d="M3316 9421 c25 -22 64 -36 64 -22 0 5 -9 13 -20 16 -11 3 -20 11 -20
16 0 5 -10 9 -22 9 l-22 0 20 -19z"/>
<path d="M6150 9409 c-19 -15 -30 -28 -25 -28 12 0 69 48 64 54 -2 2 -20 -10
-39 -26z"/>
<path d="M3253 9410 c24 -20 39 -17 31 4 -3 7 -16 14 -29 14 l-24 0 22 -18z"/>
<path d="M3849 9425 c-1 -3 -3 -9 -4 -15 -1 -5 -3 -14 -4 -20 0 -5 -13 -10
-28 -10 -19 0 -24 -3 -15 -9 8 -4 13 -11 13 -15 -2 -16 0 -16 16 0 16 15 43
60 43 70 0 6 -20 5 -21 -1z"/>
<path d="M6852 9410 c-25 -24 -27 -31 -10 -48 18 -18 53 -14 72 7 41 45 -16
83 -62 41z m65 -6 c5 -16 -25 -44 -48 -44 -22 0 -26 29 -7 48 15 15 50 12 55
-4z"/>
<path d="M3174 9405 c-18 -14 -18 -14 4 -15 12 0 22 -4 22 -10 0 -5 12 -10 26
-10 23 0 25 2 14 16 -24 28 -46 34 -66 19z"/>
<path d="M3030 9400 c0 -5 7 -7 15 -4 8 4 15 8 15 10 0 2 -7 4 -15 4 -8 0 -15
-4 -15 -10z"/>
<path d="M3500 9401 c0 -6 5 -13 10 -16 6 -3 10 1 10 9 0 9 -4 16 -10 16 -5 0
-10 -4 -10 -9z"/>
<path d="M3768 9403 c7 -3 16 -2 19 1 4 3 -2 6 -13 5 -11 0 -14 -3 -6 -6z"/>
<path d="M2923 9393 c9 -2 23 -2 30 0 6 3 -1 5 -18 5 -16 0 -22 -2 -12 -5z"/>
<path d="M3090 9390 c0 -5 7 -7 15 -4 8 4 15 8 15 10 0 2 -7 4 -15 4 -8 0 -15
-4 -15 -10z"/>
<path d="M1367 9323 c-7 -96 14 -128 54 -80 22 27 24 37 4 37 -11 0 -15 11
-15 43 0 39 -13 67 -31 67 -3 0 -9 -30 -12 -67z"/>
<path d="M3870 9380 c0 -5 5 -10 10 -10 6 0 10 5 10 10 0 6 -4 10 -10 10 -5 0
-10 -4 -10 -10z"/>
<path d="M6182 9370 c-27 -25 -28 -41 -3 -62 18 -15 21 -14 55 14 31 25 34 31
23 49 -15 25 -47 24 -75 -1z m61 -4 c7 -18 -13 -44 -38 -48 -26 -4 -33 31 -9
49 23 17 40 17 47 -1z"/>
<path d="M3145 9370 c-3 -5 -18 -7 -33 -4 -15 3 -22 2 -16 -3 15 -11 -1 -53
-20 -53 -7 0 -16 -7 -20 -15 -3 -9 0 -15 10 -15 8 0 26 -11 39 -25 14 -16 26
-22 30 -15 7 11 -17 40 -34 40 -6 0 -11 4 -11 9 0 6 15 5 36 -1 28 -7 39 -7
45 4 13 19 11 25 -12 41 -19 14 -19 16 -4 25 11 6 14 12 7 16 -6 3 -13 2 -17
-4z m-18 -62 c-3 -8 -6 -5 -6 6 -1 11 2 17 5 13 3 -3 4 -12 1 -19z"/>
<path d="M3625 9370 c-3 -5 0 -10 8 -10 11 0 16 -14 19 -47 2 -27 0 -49 -4
-51 -14 -6 -8 -27 15 -49 16 -15 28 -19 38 -12 11 7 10 10 -8 15 -22 6 -34 44
-14 44 5 0 12 7 15 16 4 12 1 14 -14 9 -17 -6 -20 -2 -20 29 0 55 -18 84 -35
56z"/>
<path d="M3910 9373 c0 -7 -7 -13 -15 -13 -8 0 -15 -4 -15 -9 0 -15 18 -23 25
-11 3 5 16 10 28 11 15 0 17 2 7 6 -8 3 -18 11 -22 17 -5 8 -8 7 -8 -1z"/>
<path d="M2750 9360 c0 -5 5 -10 10 -10 6 0 10 5 10 10 0 6 -4 10 -10 10 -5 0
-10 -4 -10 -10z"/>
<path d="M2893 9363 c9 -2 23 -2 30 0 6 3 -1 5 -18 5 -16 0 -22 -2 -12 -5z"/>
<path d="M3297 9355 c-8 -8 -17 -12 -20 -8 -9 9 -97 12 -97 3 0 -12 27 -20 68
-20 34 0 35 -1 16 -15 -17 -13 -17 -14 -1 -15 20 0 23 -16 5 -23 -7 -2 -6 -3
4 -2 12 2 17 -7 20 -34 5 -38 -9 -61 -36 -61 -9 0 -16 -7 -16 -16 0 -13 7 -15
29 -11 21 4 34 1 46 -13 23 -25 53 -26 51 -2 -1 12 5 16 19 14 29 -5 32 -12
13 -26 -15 -11 -19 -22 -27 -66 -1 -3 -6 2 -12 10 -8 12 -10 12 -7 -5 2 -15
12 -21 40 -23 34 -3 38 0 44 25 4 15 16 40 27 55 11 14 16 31 12 37 -4 7 -1
18 5 26 10 12 9 15 -9 15 -13 0 -25 9 -31 23 -7 17 -9 18 -9 5 -1 -22 -31 -24
-31 -3 0 8 5 15 10 15 6 0 10 8 10 18 -1 16 -1 16 -14 0 -7 -10 -18 -18 -24
-18 -6 0 -13 8 -15 18 -4 16 -5 16 -6 0 0 -10 9 -28 21 -40 l21 -21 -21 5
c-24 7 -32 -16 -9 -25 9 -4 9 -6 -1 -6 -7 -1 -21 6 -30 15 -11 11 -17 13 -20
5 -9 -26 -17 1 -14 43 5 57 22 61 22 6 0 -22 5 -40 10 -40 15 0 12 54 -5 86
-12 23 -15 25 -21 11 -3 -9 -10 -17 -15 -17 -24 0 4 76 30 83 14 4 14 5 -1 6
-9 0 -23 -6 -31 -14z m146 -175 c22 -27 22 -53 0 -48 -10 2 -17 10 -15 17 1 7
-7 15 -18 18 -20 5 -25 15 -13 26 12 12 28 7 46 -13z"/>
<path d="M3977 9363 c20 -4 21 -7 12 -25 -9 -16 -8 -19 3 -16 7 3 14 14 16 26
3 18 -1 22 -25 21 -23 -1 -24 -2 -6 -6z"/>
<path d="M4047 9346 c-5 -15 -6 -31 -3 -34 8 -8 18 25 14 45 -3 13 -6 10 -11
-11z"/>
<path d="M4080 9360 c0 -5 5 -10 11 -10 5 0 7 5 4 10 -3 6 -8 10 -11 10 -2 0
-4 -4 -4 -10z"/>
<path d="M6934 9355 c-4 -8 -3 -23 0 -32 11 -26 -17 -36 -31 -10 -9 16 -12 18
-13 6 0 -23 24 -41 45 -33 13 5 15 14 11 35 -6 31 10 39 32 17 7 -7 12 -8 12
-2 0 29 -46 45 -56 19z"/>
<path d="M3680 9351 c0 -4 11 -6 25 -3 14 2 25 6 25 8 0 2 -11 4 -25 4 -14 0
-25 -4 -25 -9z"/>
<path d="M6274 9319 c-63 -52 -63 -53 -38 -45 19 6 21 3 18 -21 l-4 -28 12 28
c9 20 19 27 42 28 31 2 31 2 4 6 -16 2 -28 7 -28 11 0 3 12 16 28 28 15 12 25
25 21 28 -3 3 -27 -13 -55 -35z"/>
<path d="M3740 9336 c0 -8 6 -16 14 -19 10 -4 12 0 9 14 -6 22 -23 26 -23 5z"/>
<path d="M2682 9319 c-10 -15 -10 -19 2 -19 15 0 29 27 18 34 -5 3 -13 -4 -20
-15z"/>
<path d="M3839 9313 c-1 -10 -1 -24 0 -30 2 -15 -25 -17 -34 -3 -3 6 -14 9
-23 9 -14 -1 -14 -2 2 -6 11 -3 15 -8 8 -12 -6 -3 4 -11 23 -17 l33 -10 4 39
c2 21 0 41 -4 43 -4 3 -9 -3 -9 -13z"/>
<path d="M4308 9316 c-10 -7 -15 -16 -11 -20 4 -4 -3 -9 -15 -13 -12 -3 -19
-9 -16 -14 3 -5 0 -9 -6 -9 -15 0 -80 -50 -80 -61 0 -5 8 -9 18 -10 10 0 12
-3 5 -6 -7 -2 -13 -11 -13 -18 0 -8 -9 -21 -21 -29 l-21 -14 23 -34 c30 -41
34 -62 19 -99 -13 -30 -63 -59 -102 -59 -21 0 -68 -45 -68 -65 0 -3 -28 -42
-62 -88 -65 -85 -90 -122 -327 -462 l-139 -200 156 -7 c86 -3 461 -11 832 -17
371 -7 770 -14 885 -17 l210 -6 -240 243 c-132 134 -392 397 -577 584 -185
187 -352 356 -371 375 -55 57 -60 60 -79 46z"/>
<path d="M3200 9310 c0 -5 5 -10 11 -10 5 0 7 5 4 10 -3 6 -8 10 -11 10 -2 0
-4 -4 -4 -10z"/>
<path d="M3417 9313 c-15 -14 -6 -25 10 -12 15 13 16 12 11 -8 -7 -27 16 -32
26 -6 9 23 -29 45 -47 26z"/>
<path d="M3502 9311 c-15 -9 -6 -37 15 -45 19 -8 32 2 16 12 -6 4 -12 15 -14
24 -3 11 -8 15 -17 9z"/>
<path d="M3710 9310 c-13 -8 -12 -10 3 -10 9 0 17 5 17 10 0 12 -1 12 -20 0z"/>
<path d="M3931 9301 c17 -26 47 -43 54 -31 4 6 -1 13 -9 16 -9 3 -16 12 -16
20 0 8 -9 14 -20 14 -17 0 -18 -3 -9 -19z"/>
<path d="M4070 9295 c-8 -9 -8 -15 -2 -15 12 0 26 19 19 26 -2 2 -10 -2 -17
-11z"/>
<path d="M6991 9301 c-9 -6 -11 -18 -8 -33 9 -33 -2 -42 -25 -21 -10 9 -18 11
-18 6 0 -18 29 -36 46 -29 11 4 15 14 11 32 -5 29 19 45 35 23 8 -11 9 -10 4
4 -3 10 -6 21 -6 23 0 7 -24 4 -39 -5z"/>
<path d="M2960 9290 c0 -5 4 -10 8 -10 5 0 7 -13 4 -30 -3 -22 0 -30 10 -30
21 0 17 55 -4 69 -12 7 -18 8 -18 1z"/>
<path d="M3360 9290 c0 -5 5 -10 11 -10 5 0 7 5 4 10 -3 6 -8 10 -11 10 -2 0
-4 -4 -4 -10z"/>
<path d="M3889 9295 c-7 -37 -4 -65 7 -65 22 0 26 18 10 47 -8 16 -16 24 -17
18z"/>
<path d="M4000 9290 c0 -5 7 -10 16 -10 8 0 12 5 9 10 -3 6 -10 10 -16 10 -5
0 -9 -4 -9 -10z"/>
<path d="M2865 9276 c11 -8 24 -12 28 -9 11 7 -12 23 -32 23 -11 0 -9 -4 4
-14z"/>
<path d="M3732 9278 c-17 -17 -15 -35 4 -42 10 -4 14 -14 11 -26 -3 -11 -1
-20 4 -20 5 0 14 -12 19 -26 6 -14 14 -22 20 -19 15 9 12 35 -4 35 -8 0 -17
10 -21 23 -3 12 -11 32 -18 45 -9 19 -8 25 3 32 8 6 10 10 5 10 -6 0 -16 -5
-23 -12z"/>
<path d="M3559 9238 c-8 -32 -14 -39 -30 -35 -14 4 -21 -1 -25 -20 -4 -13 -1
-30 5 -36 8 -8 11 -8 11 1 0 15 36 52 50 52 6 0 10 5 10 10 0 6 7 10 15 10 8
0 15 -6 15 -14 0 -20 17 -29 35 -18 13 7 12 10 -10 22 -29 15 -31 23 -10 44
22 21 19 24 -20 24 -32 0 -36 -3 -46 -40z m41 17 c0 -8 -4 -15 -10 -15 -5 0
-10 7 -10 15 0 8 5 15 10 15 6 0 10 -7 10 -15z"/>
<path d="M7720 9240 c-60 -56 -11 -96 56 -45 35 27 44 65 16 71 -7 1 -8 0 -2
-3 5 -2 10 -10 10 -16 0 -18 -52 -67 -71 -67 -33 0 -31 21 6 55 20 19 32 35
27 35 -6 0 -24 -13 -42 -30z"/>
<path d="M2583 9244 c-3 -8 -1 -20 6 -27 8 -8 11 -4 11 16 0 30 -7 35 -17 11z"/>
<path d="M4080 9244 c0 -8 5 -12 10 -9 6 3 10 10 10 16 0 5 -4 9 -10 9 -5 0
-10 -7 -10 -16z"/>
<path d="M6302 9240 c-26 -24 -29 -55 -6 -64 14 -5 15 -4 5 8 -14 17 -3 49 14
42 8 -3 16 2 19 10 7 18 26 9 26 -12 0 -8 -8 -14 -17 -14 -15 0 -16 -2 -3 -10
20 -12 33 2 28 31 -4 32 -37 36 -66 9z"/>
<path d="M2850 9240 c0 -5 6 -10 14 -10 8 0 18 5 21 10 3 6 -3 10 -14 10 -12
0 -21 -4 -21 -10z"/>
<path d="M2920 9240 c0 -5 5 -10 11 -10 5 0 7 5 4 10 -3 6 -8 10 -11 10 -2 0
-4 -4 -4 -10z"/>
<path d="M3032 9238 c-7 -7 -12 -18 -12 -25 0 -7 -9 -13 -20 -13 -11 0 -20 -5
-20 -11 0 -6 -7 -9 -15 -6 -20 8 -28 -8 -10 -23 12 -10 16 -9 21 4 3 9 13 16
21 16 17 0 43 24 43 39 0 6 5 11 10 11 6 0 10 5 10 10 0 14 -13 13 -28 -2z"/>
<path d="M3520 9230 c0 -5 5 -10 11 -10 5 0 7 5 4 10 -3 6 -8 10 -11 10 -2 0
-4 -4 -4 -10z"/>
<path d="M3930 9230 c0 -5 5 -10 11 -10 5 0 7 5 4 10 -3 6 -8 10 -11 10 -2 0
-4 -4 -4 -10z"/>
<path d="M4000 9230 c0 -5 10 -10 23 -10 18 0 19 2 7 10 -19 13 -30 13 -30 0z"/>
<path d="M2766 9215 c-3 -9 0 -15 9 -15 16 0 20 16 6 24 -5 3 -11 -1 -15 -9z"/>
<path d="M2540 9210 c0 -5 5 -10 11 -10 5 0 7 5 4 10 -3 6 -8 10 -11 10 -2 0
-4 -4 -4 -10z"/>
<path d="M3787 9214 c-3 -4 1 -13 10 -22 14 -14 17 -14 29 3 14 18 14 18 15
-1 4 -45 6 -60 14 -81 4 -13 12 -23 17 -23 5 0 1 14 -9 30 -15 26 -16 32 -4
40 12 7 12 11 2 24 -8 9 -9 16 -3 16 5 0 15 -7 22 -15 10 -12 10 -18 0 -30 -9
-10 -9 -15 -1 -15 6 0 11 4 11 8 0 5 10 19 22 32 17 18 18 22 5 17 -9 -3 -32
0 -51 8 -37 16 -69 19 -79 9z"/>
<path d="M2860 9202 c0 -15 11 -21 27 -15 12 5 12 7 1 14 -17 11 -28 11 -28 1z"/>
<path d="M3057 9203 c-12 -11 -8 -23 8 -23 8 0 15 4 15 9 0 5 8 12 18 14 11 3
8 5 -9 6 -14 0 -29 -2 -32 -6z"/>
<path d="M3200 9200 c0 -6 7 -10 15 -10 8 0 15 2 15 4 0 2 -7 6 -15 10 -8 3
-15 1 -15 -4z"/>
<path d="M2800 9189 c0 -5 5 -7 10 -4 6 3 10 8 10 11 0 2 -4 4 -10 4 -5 0 -10
-5 -10 -11z"/>
<path d="M4050 9190 c0 -5 5 -10 10 -10 6 0 10 5 10 10 0 6 -4 10 -10 10 -5 0
-10 -4 -10 -10z"/>
<path d="M6415 9160 c-27 -22 -52 -45 -54 -52 -2 -7 6 -4 18 6 21 19 23 19 51
2 54 -31 93 15 53 62 -18 21 -18 21 -68 -18z m75 -26 c0 -18 -30 -26 -46 -13
-19 16 -17 36 4 48 13 8 20 6 30 -6 6 -9 12 -22 12 -29z"/>
<path d="M2536 9182 c-23 -5 -51 -30 -42 -39 3 -3 12 0 21 7 8 7 24 10 35 7
21 -5 25 1 12 18 -4 6 -16 9 -26 7z"/>
<path d="M4160 9180 c0 -5 5 -10 10 -10 6 0 10 5 10 10 0 6 -4 10 -10 10 -5 0
-10 -4 -10 -10z"/>
<path d="M2428 9153 c-41 -34 -277 -243 -338 -300 -25 -23 -63 -56 -84 -75
-22 -18 -51 -44 -65 -57 -113 -104 -248 -223 -436 -388 -77 -67 -153 -133
-170 -147 l-30 -27 62 4 c78 5 98 -5 63 -34 -77 -64 -127 -107 -154 -130 l-30
-26 22 -23 c26 -29 20 -39 -56 -88 l-54 -34 -25 24 c-24 21 -25 21 -15 2 6
-11 18 -27 27 -34 20 -16 194 -26 289 -15 l66 7 206 164 205 164 284 3 c157 1
285 -2 285 -7 0 -5 7 -3 16 5 10 8 18 9 22 3 11 -17 145 -12 158 5 11 15 50 8
40 -7 -3 -5 9 -6 27 -4 18 3 26 7 18 10 -9 3 -4 9 15 18 27 12 27 13 5 11 -13
-1 -26 4 -28 11 -3 6 1 12 9 12 7 1 2 7 -12 15 -24 14 -24 14 -3 15 12 0 28 7
37 15 8 8 30 15 48 15 l33 1 -28 15 c-15 8 -32 12 -37 9 -6 -3 -10 1 -10 9 0
20 -19 21 -26 1 -9 -22 -27 -18 -21 5 6 25 -8 26 -22 3 -6 -10 -11 -13 -11 -8
0 13 48 65 60 65 6 0 10 -4 10 -10 0 -5 -7 -10 -15 -10 -8 0 -15 -5 -15 -11 0
-7 10 -9 25 -5 17 4 24 2 23 -5 -2 -8 13 -13 45 -13 41 -1 47 -4 43 -18 -2
-10 0 -18 4 -18 5 0 16 -7 24 -16 21 -21 21 0 -1 37 -17 28 -32 33 -80 29 -18
-1 -21 2 -16 16 4 10 0 20 -10 26 -10 5 -17 16 -17 24 0 11 8 8 27 -11 15 -14
36 -25 45 -25 10 0 18 -4 18 -10 0 -5 5 -10 12 -10 6 0 19 -7 29 -16 11 -10
19 -12 24 -5 3 6 -1 11 -9 11 -10 0 -13 6 -10 15 4 9 1 15 -7 15 -10 0 -10 3
-2 11 14 14 34 3 27 -15 -3 -8 4 -16 15 -19 17 -4 21 0 21 20 0 14 -10 34 -22
44 -11 11 -19 21 -16 24 2 3 14 -4 26 -15 12 -11 26 -20 31 -20 6 0 15 -8 20
-17 9 -16 12 -16 21 -3 11 18 13 51 3 49 -21 -3 -21 3 -1 26 26 30 28 30 56 5
12 -12 22 -16 22 -10 0 10 -16 27 -60 60 -25 19 -25 19 -2 20 13 0 22 -6 22
-16 0 -11 6 -14 20 -9 14 5 20 2 20 -9 0 -9 9 -16 20 -16 11 0 20 3 20 6 0 13
-44 44 -62 44 -16 0 -18 6 -15 41 2 22 9 44 16 48 9 6 10 20 2 60 -1 2 -9 -7
-19 -19 -11 -13 -24 -20 -30 -16 -18 11 -14 34 4 32 18 -1 42 29 31 40 -3 4
-13 1 -21 -5 -10 -8 -16 -9 -21 -1 -3 6 -10 8 -15 5 -4 -3 -15 -2 -24 1 -14 5
-12 10 9 30 32 30 35 30 35 -1 0 -14 4 -25 10 -25 12 0 24 45 17 63 -3 8 -1
20 3 27 7 12 11 12 25 0 10 -8 12 -17 6 -23 -5 -5 -7 -16 -4 -24 3 -8 0 -18
-7 -23 -23 -14 17 -60 54 -60 l31 1 -37 20 c-21 11 -38 24 -38 29 0 14 62 38
98 37 31 0 31 -1 15 -19 -10 -12 -16 -32 -15 -54 2 -18 -2 -34 -8 -34 -5 0
-10 -6 -10 -14 0 -9 8 -12 24 -9 12 3 39 0 60 -5 29 -8 36 -8 36 4 0 8 -7 14
-15 14 -7 0 -19 8 -25 18 -8 12 -13 13 -16 5 -11 -27 -24 -11 -22 26 1 33 6
41 32 54 20 10 25 16 14 16 -10 1 -18 8 -18 16 0 11 12 15 48 16 26 0 56 4 66
8 18 7 18 8 3 14 -10 4 -17 2 -17 -5 0 -7 -17 -9 -50 -6 -35 4 -53 1 -61 -8
-6 -8 -26 -14 -44 -14 -35 0 -95 26 -95 41 0 12 14 11 27 -2 14 -14 54 18 46
37 -8 21 -20 17 -27 -8 l-6 -23 -15 25 c-15 25 -15 25 -21 3 -6 -21 -58 -42
-71 -29 -4 3 -12 1 -20 -6 -10 -8 -20 -8 -38 2 -14 7 -25 18 -25 23 0 5 -8 16
-17 23 -16 12 -16 15 -3 24 20 13 -1 13 -36 0 -23 -9 -25 -9 -15 4 7 9 8 17 2
20 -5 3 -11 1 -13 -5 -4 -11 -87 -20 -86 -10 3 33 -4 52 -18 49 -10 -2 -19 3
-21 10 -4 9 6 11 39 6 23 -3 38 -2 33 3 -12 9 -45 59 -45 68 0 15 19 2 24 -17
7 -26 51 -61 68 -56 7 3 -7 23 -30 46 -36 36 -46 41 -74 37 -18 -3 -27 -3 -20
1 6 3 12 14 12 25 0 11 7 19 16 19 8 0 23 7 31 16 14 13 14 17 2 25 -8 5 -31
9 -51 9 -20 0 -44 3 -54 7 -13 5 -16 3 -12 -9 8 -18 -29 -53 -57 -54 -76 -3
-77 -3 -73 -26 4 -21 0 -23 -39 -24 -24 -1 -49 -6 -56 -12 -7 -6 -29 -9 -50
-7 -29 2 -37 -1 -37 -13 -1 -15 -3 -14 -15 2 -8 11 -18 16 -22 12 -4 -4 -3
-10 3 -14 18 -12 16 -69 -2 -76 -20 -8 -33 2 -17 12 14 9 12 35 -6 56 -11 13
-9 19 13 39 14 13 23 27 19 30 -3 4 -1 7 5 7 6 0 14 -4 17 -10 3 -5 1 -10 -4
-10 -6 0 -11 -4 -11 -10 0 -5 7 -10 15 -10 8 0 15 5 15 10 0 7 7 7 21 -1 15
-8 24 -8 32 0 8 8 6 11 -7 11 -15 0 -16 3 -7 14 18 22 -4 29 -25 9 -17 -17
-18 -17 -11 1 6 14 4 17 -9 12 -14 -6 -15 -4 -4 9 8 9 22 14 33 11 10 -2 25
-2 33 1 17 6 19 33 2 33 -6 0 -8 3 -5 6 4 4 14 1 23 -7 16 -13 16 -12 5 9 -6
12 -9 27 -6 32 11 17 -2 11 -37 -17z m322 -59 c0 -2 -7 -4 -15 -4 -8 0 -15 4
-15 10 0 5 7 7 15 4 8 -4 15 -8 15 -10z m-39 -62 c-6 -2 -11 -8 -11 -14 0 -6
7 -7 16 -4 8 3 20 1 27 -4 7 -6 23 -20 37 -31 l25 -21 -25 7 c-14 4 -29 11
-34 16 -17 16 -66 11 -66 -7 0 -10 6 -13 19 -9 15 4 21 -1 30 -26 13 -39 13
-39 1 -39 -5 0 -10 9 -10 20 0 21 -30 27 -64 14 -22 -9 -20 -51 4 -71 23 -20
26 -33 8 -33 -15 0 -38 45 -38 72 0 10 -11 23 -24 27 -24 10 -42 39 -30 50 4
3 9 0 11 -6 6 -18 23 -16 23 2 0 8 5 15 10 15 6 0 10 -7 10 -15 0 -8 5 -15 11
-15 5 0 8 4 4 9 -3 5 6 22 20 37 13 14 22 30 20 35 -3 4 3 12 12 18 14 8 19 6
22 -7 2 -9 -2 -18 -8 -20z m-78 11 c-7 -2 -19 -2 -25 0 -7 3 -2 5 12 5 14 0
19 -2 13 -5z m-23 -23 c0 -5 -4 -10 -10 -10 -5 0 -10 5 -10 10 0 6 5 10 10 10
6 0 10 -4 10 -10z m50 0 c0 -5 -7 -10 -15 -10 -8 0 -15 5 -15 10 0 6 7 10 15
10 8 0 15 -4 15 -10z m-346 -47 c9 -22 1 -26 -31 -19 -21 6 -24 9 -12 17 7 5
10 9 6 9 -5 0 -6 4 -2 10 8 12 32 2 39 -17z m136 -43 l-1 -25 -17 28 c-9 15
-22 27 -29 27 -7 0 -13 7 -13 15 0 12 5 11 30 -3 21 -12 30 -25 30 -42z m110
40 c0 -5 -4 -10 -10 -10 -5 0 -10 5 -10 10 0 6 5 10 10 10 6 0 10 -4 10 -10z
m-45 -20 c3 -5 -3 -10 -14 -10 -12 0 -21 5 -21 10 0 6 6 10 14 10 8 0 18 -4
21 -10z m-245 -10 c0 -5 -9 -10 -19 -10 -11 0 -27 -3 -37 -7 -16 -6 -17 -5 -4
10 16 18 60 23 60 7z m140 -23 c0 -20 0 -20 -14 -2 -8 11 -12 23 -9 28 8 13
23 -3 23 -26z m-194 -48 c-31 -24 -39 -24 -31 0 4 15 1 19 -12 17 -10 -2 -12
-1 -5 1 6 3 12 8 12 13 0 5 14 4 30 -2 l30 -10 -24 -19z m164 26 c0 -8 -7 -15
-16 -15 -14 0 -14 3 -4 15 7 8 14 15 16 15 2 0 4 -7 4 -15z m97 -7 c-3 -8 -6
-5 -6 6 -1 11 2 17 5 13 3 -3 4 -12 1 -19z m-137 -8 c0 -5 -4 -10 -9 -10 -6 0
-13 5 -16 10 -3 6 1 10 9 10 9 0 16 -4 16 -10z m95 0 c-3 -5 -14 -10 -23 -9
-14 0 -13 2 3 9 27 11 27 11 20 0z m334 6 c-10 -8 -89 -13 -89 -5 0 5 21 9 47
9 25 0 44 -2 42 -4z m-271 -23 c-30 -8 -20 -23 15 -24 l32 -1 -30 -9 c-17 -5
-33 -5 -39 1 -13 13 1 40 21 39 17 -1 17 -2 1 -6z m92 -8 c0 -8 -4 -15 -9 -15
-13 0 -22 16 -14 24 11 11 23 6 23 -9z m250 5 c0 -5 -4 -10 -10 -10 -5 0 -10
5 -10 10 0 6 5 10 10 10 6 0 10 -4 10 -10z m98 -20 c7 -11 8 -21 2 -25 -11 -7
-51 35 -44 46 7 12 28 2 42 -21z m-678 16 c0 -3 -4 -8 -10 -11 -5 -3 -10 -1
-10 4 0 6 5 11 10 11 6 0 10 -2 10 -4z m636 -29 c21 -12 16 -27 -9 -27 -19 0
-22 5 -21 28 3 36 5 40 11 22 3 -8 12 -19 19 -23z m-496 19 c0 -11 -19 -15
-25 -6 -3 5 1 10 9 10 9 0 16 -2 16 -4z m-275 -16 c-3 -5 -10 -10 -16 -10 -5
0 -9 5 -9 10 0 6 7 10 16 10 8 0 12 -4 9 -10z m30 -9 c-3 -6 -11 -11 -17 -11
-6 0 -6 6 2 15 14 17 26 13 15 -4z m145 15 c0 -3 -4 -8 -10 -11 -5 -3 -10 -1
-10 4 0 6 5 11 10 11 6 0 10 -2 10 -4z m340 -12 c0 -8 -5 -12 -10 -9 -6 4 -8
11 -5 16 9 14 15 11 15 -7z m69 -18 c-9 -19 -15 -23 -20 -14 -5 7 -1 19 9 29
22 22 25 17 11 -15z m71 24 c0 -5 -7 -10 -16 -10 -8 0 -12 5 -9 10 3 6 10 10
16 10 5 0 9 -4 9 -10z m-673 -46 c2 -21 1 -25 -6 -15 -8 12 -12 12 -25 2 -9
-7 -13 -18 -10 -23 4 -6 9 -5 14 2 5 8 7 3 7 -13 -2 -32 -5 -33 -23 -9 -8 10
-13 12 -14 5 0 -7 -5 -13 -11 -13 -8 0 -7 5 1 15 18 22 3 32 -17 13 -15 -16
-15 -19 1 -42 9 -14 12 -26 6 -26 -5 0 -10 5 -10 10 0 14 -33 13 -47 -1 -15
-15 -5 -39 14 -39 12 0 13 3 4 14 -7 9 -8 17 -3 20 11 7 25 -40 17 -54 -4 -6
-14 -6 -28 1 -11 7 -32 15 -46 20 -17 5 -20 8 -8 8 10 1 22 12 27 26 5 14 17
25 26 25 14 0 15 2 3 17 -12 15 -12 16 3 10 12 -4 15 -2 11 9 -3 8 -2 14 3 13
21 -4 75 24 70 37 -5 13 11 24 28 20 5 -1 11 -15 13 -32z m483 26 c0 -5 -8
-10 -17 -10 -15 0 -16 2 -3 10 19 12 20 12 20 0z m160 -16 c0 -2 -9 -8 -19
-13 -16 -9 -18 -8 -14 8 3 12 11 17 19 14 8 -3 14 -7 14 -9z m89 -3 c10 -18 6
-31 -11 -31 -4 0 -8 9 -8 19 0 11 -6 22 -12 24 -8 3 -6 6 4 6 10 1 22 -7 27
-18z m132 -5 c-5 -6 -11 -24 -14 -41 -3 -22 -4 -17 -6 17 -1 39 2 46 14 42 10
-4 12 -10 6 -18z m-824 8 c-3 -3 -12 -4 -19 -1 -8 3 -5 6 6 6 11 1 17 -2 13
-5z m177 -10 c5 -14 4 -15 -9 -4 -17 14 -19 20 -6 20 5 0 12 -7 15 -16z m76 6
c0 -5 -2 -10 -4 -10 -3 0 -8 5 -11 10 -3 6 -1 10 4 10 6 0 11 -4 11 -10z m84
-6 c5 -14 4 -15 -9 -4 -17 14 -19 20 -6 20 5 0 12 -7 15 -16z m156 6 c0 -5 -6
-10 -14 -10 -8 0 -18 5 -21 10 -3 6 3 10 14 10 12 0 21 -4 21 -10z m410 -5 c7
-9 8 -15 2 -15 -5 0 -12 7 -16 15 -3 8 -4 15 -2 15 2 0 9 -7 16 -15z m-170
-22 c-1 -24 -2 -26 -11 -10 -5 9 -7 22 -4 27 10 17 15 11 15 -17z m145 18 c3
-6 -1 -13 -8 -18 -8 -4 -19 -17 -25 -28 -9 -18 -11 -18 -17 -3 -4 9 1 25 12
37 19 23 29 26 38 12z m-225 -27 c0 -10 6 -14 14 -11 8 3 17 0 19 -8 9 -23
-32 -25 -48 -2 -14 20 -12 37 6 37 5 0 9 -7 9 -16z m360 6 c0 -5 -9 -10 -20
-10 -11 0 -20 5 -20 10 0 6 9 10 20 10 11 0 20 -4 20 -10z m-1020 -10 c0 -5
-4 -10 -10 -10 -5 0 -10 5 -10 10 0 6 5 10 10 10 6 0 10 -4 10 -10z m420 -6
c0 -2 -7 -4 -15 -4 -8 0 -15 4 -15 10 0 5 7 7 15 4 8 -4 15 -8 15 -10z m90
-22 c0 -15 -2 -15 -10 -2 -13 20 -13 33 0 25 6 -3 10 -14 10 -23z m-60 8 c0
-5 -5 -10 -11 -10 -5 0 -7 5 -4 10 3 6 8 10 11 10 2 0 4 -4 4 -10z m303 -30
c3 -11 10 -20 16 -20 6 0 11 9 11 20 0 21 15 27 25 10 4 -6 11 -8 16 -5 5 4 9
2 9 -4 0 -14 -59 -44 -75 -38 -7 3 -15 17 -17 31 -6 30 7 35 15 6z m-213 -10
c0 -5 -2 -10 -4 -10 -3 0 -8 5 -11 10 -3 6 -1 10 4 10 6 0 11 -4 11 -10z m110
0 c0 -5 -7 -10 -15 -10 -8 0 -15 5 -15 10 0 6 7 10 15 10 8 0 15 -4 15 -10z
m-370 -10 c0 -5 -4 -10 -10 -10 -5 0 -10 5 -10 10 0 6 5 10 10 10 6 0 10 -4
10 -10z m340 -15 c0 -12 -29 -3 -34 10 -4 13 -2 14 14 5 11 -6 20 -13 20 -15z
m-50 5 c0 -5 -5 -10 -11 -10 -5 0 -7 5 -4 10 3 6 8 10 11 10 2 0 4 -4 4 -10z
m290 -14 c0 -8 6 -17 13 -19 6 -2 0 -3 -15 -1 -15 2 -30 -1 -33 -6 -4 -6 10
-10 33 -10 23 0 45 -6 52 -15 14 -17 5 -50 -11 -40 -12 8 -61 -34 -53 -46 9
-16 24 -9 35 15 7 14 17 22 25 19 20 -7 17 -21 -6 -28 -24 -8 -25 -18 -4 -39
14 -15 14 -16 0 -16 -9 0 -25 9 -37 21 -11 11 -23 18 -26 15 -3 -3 -20 2 -37
12 l-31 17 38 3 c38 3 53 22 16 22 -11 0 -17 5 -14 10 3 6 19 10 36 10 16 0
29 5 29 10 0 6 -10 10 -21 10 -31 0 -50 29 -35 52 13 21 46 24 46 4z m-315
-15 c3 -5 1 -12 -4 -15 -5 -3 -11 1 -15 9 -6 16 9 21 19 6z m216 -9 c-7 -2
-18 1 -23 6 -8 8 -4 9 13 5 13 -4 18 -8 10 -11z m-951 -21 c0 -5 -8 -11 -19
-14 -15 -3 -18 1 -17 18 1 19 4 21 19 14 9 -5 17 -14 17 -18z m890 9 c0 -5 -9
-10 -19 -10 -11 0 -21 -6 -24 -12 -2 -7 -8 -10 -12 -5 -9 8 23 36 43 37 6 0
12 -4 12 -10z m-965 -10 c-3 -5 -12 -10 -18 -10 -7 0 -6 4 3 10 19 12 23 12
15 0z m715 -6 c0 -8 -5 -12 -10 -9 -6 4 -8 11 -5 16 9 14 15 11 15 -7z m290
-4 c0 -5 -2 -10 -4 -10 -3 0 -8 5 -11 10 -3 6 -1 10 4 10 6 0 11 -4 11 -10z
m-47 -24 c4 -10 1 -13 -9 -9 -15 6 -19 23 -5 23 5 0 11 -7 14 -14z m-958 -30
c2 -14 -3 -27 -11 -30 -8 -3 -14 -12 -14 -20 0 -7 -10 -16 -22 -20 -33 -8 -36
-8 -40 8 -2 12 -5 12 -17 -1 -11 -12 -10 -15 8 -20 23 -6 29 -23 7 -23 -13 0
-29 24 -29 45 0 6 5 22 11 37 11 27 12 27 46 13 44 -19 46 -19 46 0 0 8 -5 15
-11 15 -8 0 -7 5 1 15 15 19 22 14 25 -19z m70 24 c3 -5 -3 -10 -15 -10 -12 0
-18 5 -15 10 3 6 10 10 15 10 5 0 12 -4 15 -10z m655 -10 c-8 -5 -19 -10 -25
-10 -5 0 -3 5 5 10 8 5 20 10 25 10 6 0 3 -5 -5 -10z m293 3 c-7 -2 -19 -2
-25 0 -7 3 -2 5 12 5 14 0 19 -2 13 -5z m-163 -13 c0 -5 -4 -10 -10 -10 -5 0
-10 5 -10 10 0 6 5 10 10 10 6 0 10 -4 10 -10z m150 -10 c0 -5 -4 -10 -10 -10
-5 0 -10 5 -10 10 0 6 5 10 10 10 6 0 10 -4 10 -10z m-74 -35 c-1 -25 -26 -36
-26 -12 0 11 19 37 26 37 1 0 1 -11 0 -25z m134 -16 l25 -7 -26 -1 c-18 -1
-29 -8 -34 -23 l-8 -23 -4 23 c-3 13 -11 26 -19 29 -8 3 -14 9 -14 14 0 9 23
5 80 -12z m-262 -24 c-3 -3 -9 2 -12 12 -6 14 -5 15 5 6 7 -7 10 -15 7 -18z
m-823 -15 c-10 -11 -24 -20 -32 -20 -7 0 -13 -4 -13 -8 0 -5 -15 -16 -32 -25
-18 -10 -49 -27 -68 -39 l-35 -22 40 40 c22 21 43 38 48 36 4 -2 7 1 7 7 0 6
16 13 36 17 19 4 38 13 41 20 3 8 10 14 16 14 5 0 2 -9 -8 -20z m985 5 c0 -8
-7 -15 -15 -15 -16 0 -20 12 -8 23 11 12 23 8 23 -8z m40 -32 c0 -25 -3 -44
-6 -40 -7 7 -13 69 -7 80 9 16 13 5 13 -40z m-966 21 c5 -14 4 -15 -9 -4 -17
14 -19 20 -6 20 5 0 12 -7 15 -16z m1036 7 c0 -6 -4 -13 -10 -16 -5 -3 -10 1
-10 9 0 9 5 16 10 16 6 0 10 -4 10 -9z m-150 -11 c0 -5 -4 -10 -9 -10 -6 0
-13 5 -16 10 -3 6 1 10 9 10 9 0 16 -4 16 -10z m205 0 c3 -5 2 -10 -4 -10 -5
0 -13 5 -16 10 -3 6 -2 10 4 10 5 0 13 -4 16 -10z m-281 -41 c-9 -11 -20 -16
-23 -13 -3 4 0 9 7 11 6 3 12 11 12 19 0 9 5 12 11 9 7 -5 4 -14 -7 -26z m121
11 c3 -5 -3 -10 -15 -10 -12 0 -18 5 -15 10 3 6 10 10 15 10 5 0 12 -4 15 -10z
m70 0 c3 -5 -1 -10 -10 -10 -9 0 -13 5 -10 10 3 6 8 10 10 10 2 0 7 -4 10 -10z
m-223 -75 c3 0 10 -3 14 -7 4 -5 -7 -8 -24 -8 -30 0 -40 9 -26 23 4 4 12 3 18
-1 6 -4 14 -7 18 -7z m-99 -12 c-7 -2 -19 -2 -25 0 -7 3 -2 5 12 5 14 0 19 -2
13 -5z m-996 -9 c-3 -3 -12 -4 -19 -1 -8 3 -5 6 6 6 11 1 17 -2 13 -5z m1093
-54 c0 -5 -4 -10 -10 -10 -5 0 -10 5 -10 10 0 6 5 10 10 10 6 0 10 -4 10 -10z
m37 -45 c7 -15 7 -27 2 -31 -6 -3 -5 -12 3 -22 11 -13 11 -14 -2 -10 -9 3 -14
15 -12 32 3 24 1 26 -17 14 -25 -15 -35 -7 -26 21 9 29 38 26 52 -4z m-87 -35
c0 -5 -6 -10 -14 -10 -8 0 -18 5 -21 10 -3 6 3 10 14 10 12 0 21 -4 21 -10z"/>
<path d="M1810 8511 c0 -6 5 -13 10 -16 6 -3 10 1 10 9 0 9 -4 16 -10 16 -5 0
-10 -4 -10 -9z"/>
<path d="M3156 9164 c-11 -7 -18 -16 -15 -18 2 -2 13 2 23 10 11 7 18 16 15
18 -2 2 -13 -2 -23 -10z"/>
<path d="M3710 9170 c0 -5 4 -10 9 -10 6 0 13 5 16 10 3 6 -1 10 -9 10 -9 0
-16 -4 -16 -10z"/>
<path d="M7872 9160 c16 -24 11 -28 -46 -39 -60 -11 -65 -17 -37 -44 l23 -22
-11 22 c-15 30 -15 30 26 31 47 2 83 33 63 56 -18 23 -32 20 -18 -4z"/>
<path d="M3950 9160 c0 -5 5 -10 10 -10 6 0 10 5 10 10 0 6 -4 10 -10 10 -5 0
-10 -4 -10 -10z"/>
<path d="M4008 9163 c7 -3 16 -2 19 1 4 3 -2 6 -13 5 -11 0 -14 -3 -6 -6z"/>
<path d="M2830 9145 c0 -8 5 -15 10 -15 6 0 10 7 10 15 0 8 -4 15 -10 15 -5 0
-10 -7 -10 -15z"/>
<path d="M3680 9152 c0 -6 -9 -12 -20 -14 -26 -4 -27 -22 -2 -26 13 -2 21 4
25 20 4 12 4 24 2 27 -3 2 -5 -1 -5 -7z"/>
<path d="M3740 9151 c0 -6 5 -13 10 -16 6 -3 10 1 10 9 0 9 -4 16 -10 16 -5 0
-10 -4 -10 -9z"/>
<path d="M3902 9140 c-10 -16 -8 -20 9 -25 26 -9 28 -5 14 22 -11 21 -12 21
-23 3z"/>
<path d="M2880 9136 c0 -8 -13 -20 -30 -28 -37 -16 -38 -40 -2 -76 29 -29 78
-44 70 -20 -3 7 -15 12 -26 11 -13 -2 -23 5 -27 17 -7 24 3 62 15 55 4 -3 10
7 13 20 2 14 0 28 -4 31 -5 3 -9 -1 -9 -10z"/>
<path d="M3085 9140 c-3 -5 -4 -14 0 -20 5 -9 1 -16 -44 -66 -14 -16 -16 -25
-8 -33 8 -8 6 -11 -6 -11 -21 0 -87 31 -87 42 0 4 -7 8 -15 8 -8 0 -15 -4 -15
-10 0 -5 6 -10 13 -10 18 0 52 -38 52 -58 0 -11 11 -19 30 -23 37 -7 63 0 44
11 -7 5 -9 15 -4 26 5 11 7 25 6 32 -1 6 3 12 9 12 15 0 12 -72 -5 -94 -16
-21 -60 -46 -81 -46 -8 0 -14 -9 -14 -21 0 -11 3 -19 8 -17 4 2 21 10 37 17
17 7 38 17 47 22 24 12 28 11 22 -4 -6 -17 24 -44 35 -31 10 11 -4 54 -18 54
-18 0 -1 109 18 111 54 5 91 2 91 -8 0 -7 -7 -13 -15 -13 -8 0 -15 -4 -15 -10
0 -5 7 -10 15 -10 8 0 15 -4 15 -10 0 -5 -18 -10 -40 -10 -22 0 -40 5 -40 10
0 6 7 10 15 10 8 0 15 5 15 10 0 6 -8 10 -19 10 -13 0 -20 -9 -24 -32 -5 -37
2 -57 13 -38 6 9 13 7 29 -9 11 -11 28 -21 36 -21 8 0 15 -5 15 -10 0 -7 6 -7
20 0 17 9 22 7 29 -12 27 -70 30 -74 30 -52 1 13 10 25 24 29 21 8 21 8 -6 12
-21 3 -29 11 -34 34 -3 16 -8 29 -12 29 -14 1 -39 27 -45 48 -11 34 21 42 46
11 l20 -24 -7 28 c-3 18 0 33 9 42 20 21 23 19 23 -15 0 -16 -4 -30 -9 -30 -4
0 -8 -8 -8 -17 1 -17 1 -17 14 0 7 9 20 17 28 17 15 0 38 19 38 32 0 4 -7 8
-15 8 -8 0 -15 -5 -15 -11 0 -5 -5 -7 -11 -3 -8 5 -8 8 0 13 14 9 -20 43 -39
39 -6 -2 -16 8 -21 21 -9 22 -7 23 18 17 21 -5 24 -4 13 4 -35 23 -50 12 -50
-35 0 -38 -3 -45 -20 -45 -20 0 -28 24 -11 34 15 10 20 46 6 46 -8 0 -16 -17
-20 -40 -8 -48 -25 -53 -26 -7 l-1 32 -9 -32 c-13 -44 -29 -42 -29 5 -1 49
-29 88 -45 62z m25 -80 c0 -11 -7 -20 -15 -20 -15 0 -21 21 -8 33 12 13 23 7
23 -13z m100 -115 c24 -29 -4 -38 -34 -10 l-27 25 24 0 c14 0 30 -7 37 -15z"/>
<path d="M3577 9143 c-12 -11 -8 -23 8 -23 8 0 15 7 15 15 0 16 -12 20 -23 8z"/>
<path d="M4045 9143 c-46 -5 -65 -18 -65 -44 0 -11 -4 -19 -10 -19 -5 0 -10 9
-10 21 0 18 -2 19 -15 5 -17 -16 -21 -41 -5 -31 6 3 10 -3 10 -14 0 -12 -8
-21 -22 -24 l-23 -4 23 -2 c12 0 22 -8 22 -16 0 -8 4 -15 10 -15 5 0 7 13 3
32 -4 22 -3 29 5 24 7 -4 12 -19 12 -34 0 -39 11 -73 21 -66 5 3 5 14 -1 25
-12 22 -11 137 2 145 4 3 8 -2 8 -10 0 -13 4 -13 28 -1 15 7 38 18 52 24 26
10 22 10 -45 4z"/>
<path d="M2646 9124 c-4 -10 -1 -14 6 -12 15 5 23 28 10 28 -5 0 -13 -7 -16
-16z"/>
<path d="M2925 9130 c-3 -5 3 -10 14 -10 12 0 21 5 21 10 0 6 -6 10 -14 10 -8
0 -18 -4 -21 -10z"/>
<path d="M3026 9115 c-24 -32 -56 -42 -68 -21 -10 18 -38 22 -38 5 0 -6 9 -13
20 -16 11 -3 20 -14 20 -24 0 -24 5 -24 30 1 11 11 26 20 33 20 17 0 37 34 28
48 -4 7 -13 3 -25 -13z"/>
<path d="M3497 9123 c-11 -3 -16 -11 -13 -19 3 -7 -2 -17 -10 -22 -9 -5 -14
-18 -12 -28 2 -14 10 -8 30 29 15 26 26 46 25 46 -1 -1 -10 -3 -20 -6z"/>
<path d="M3718 9123 c7 -3 16 -2 19 1 4 3 -2 6 -13 5 -11 0 -14 -3 -6 -6z"/>
<path d="M3788 9123 c-26 -6 -22 -15 15 -40 46 -32 56 -29 23 6 -20 21 -24 30
-14 34 16 7 0 7 -24 0z"/>
<path d="M7930 9108 c20 -24 9 -38 -46 -54 -30 -9 -53 -18 -50 -21 7 -7 114
26 122 38 3 6 -3 20 -15 30 -11 11 -16 14 -11 7z"/>
<path d="M3317 9104 c-8 -8 1 -24 14 -24 5 0 9 7 9 15 0 15 -12 20 -23 9z"/>
<path d="M3520 9096 c0 -10 9 -16 21 -16 24 0 21 23 -4 28 -10 2 -17 -3 -17
-12z"/>
<path d="M3600 9094 c0 -9 7 -14 17 -12 25 5 28 28 4 28 -12 0 -21 -6 -21 -16z"/>
<path d="M2467 9074 c-10 -13 -13 -24 -8 -24 6 0 15 8 21 18 9 15 10 14 5 -5
-7 -25 -5 -26 19 -17 20 8 21 34 2 34 -8 0 -16 4 -18 9 -1 5 -11 -2 -21 -15z"/>
<path d="M3680 9090 c0 -5 4 -10 9 -10 6 0 13 5 16 10 3 6 -1 10 -9 10 -9 0
-16 -4 -16 -10z"/>
<path d="M3756 9081 c-4 -7 -5 -15 -2 -18 9 -9 19 4 14 18 -4 11 -6 11 -12 0z"/>
<path d="M6458 9059 l-33 -31 33 22 c18 12 39 19 47 16 9 -3 12 0 8 10 -8 21
-19 18 -55 -17z"/>
<path d="M2881 9064 c0 -11 3 -14 6 -6 3 7 2 16 -1 19 -3 4 -6 -2 -5 -13z"/>
<path d="M3506 9055 c4 -8 1 -15 -6 -15 -10 0 -10 -3 0 -15 10 -12 10 -15 -3
-15 -9 0 -27 4 -42 10 -29 11 -43 -6 -30 -37 8 -17 8 -17 12 0 5 20 40 23 77
5 19 -8 32 -8 48 0 22 10 21 11 -9 11 -40 1 -44 18 -5 24 l27 4 -27 2 c-21 1
-28 6 -28 21 0 11 -4 20 -10 20 -5 0 -7 -7 -4 -15z"/>
<path d="M3570 9060 c0 -5 7 -10 15 -10 8 0 15 -4 15 -10 0 -5 7 -10 15 -10
12 0 11 4 -5 20 -22 22 -40 26 -40 10z"/>
<path d="M3698 9053 c-10 -2 -18 -9 -18 -14 0 -5 -7 -9 -15 -9 -8 0 -15 -4
-15 -10 0 -15 19 -12 36 5 9 8 24 15 35 15 11 0 17 5 14 10 -6 10 -9 11 -37 3z"/>
<path d="M3780 9050 c0 -6 7 -10 15 -10 8 0 15 2 15 4 0 2 -7 6 -15 10 -8 3
-15 1 -15 -4z"/>
<path d="M3861 9024 c0 -11 3 -14 6 -6 3 7 2 16 -1 19 -3 4 -6 -2 -5 -13z"/>
<path d="M6490 9020 c-24 -24 -25 -43 -5 -60 32 -27 102 33 75 65 -17 21 -46
19 -70 -5z m55 -14 c0 -10 -9 -25 -21 -33 -18 -11 -23 -11 -32 0 -9 10 -8 19
4 36 18 26 49 24 49 -3z"/>
<path d="M3737 9024 c-8 -8 1 -24 14 -24 5 0 9 7 9 15 0 15 -12 20 -23 9z"/>
<path d="M2940 8989 c0 -7 -11 -9 -30 -5 -18 3 -30 1 -30 -5 0 -6 4 -8 9 -4 5
3 11 -7 13 -22 3 -28 34 -44 71 -35 28 7 19 21 -13 20 -17 -1 -36 4 -42 10 -9
9 -8 12 3 12 8 0 20 -5 25 -10 7 -7 11 -1 11 20 0 16 -4 30 -9 30 -4 0 -8 -5
-8 -11z"/>
<path d="M3357 8967 c6 -31 35 -67 53 -67 14 0 12 11 -5 34 -10 14 -12 23 -4
32 11 14 -4 27 -33 29 -14 1 -16 -4 -11 -28z"/>
<path d="M3608 8993 c7 -3 16 -2 19 1 4 3 -2 6 -13 5 -11 0 -14 -3 -6 -6z"/>
<path d="M6620 8996 c0 -2 7 -6 15 -10 8 -3 15 -1 15 4 0 6 -7 10 -15 10 -8 0
-15 -2 -15 -4z"/>
<path d="M6583 8983 c4 -3 -3 -18 -15 -32 l-23 -26 23 19 c17 15 25 17 34 8 9
-9 5 -19 -17 -42 -35 -37 -25 -39 21 -4 34 26 34 26 17 55 -10 16 -24 29 -32
29 -8 0 -11 -3 -8 -7z"/>
<path d="M3885 8970 c-3 -5 1 -10 10 -10 9 0 13 5 10 10 -3 6 -8 10 -10 10 -2
0 -7 -4 -10 -10z"/>
<path d="M3565 8963 c16 -3 33 -9 36 -15 4 -6 13 -7 20 -3 17 11 -15 24 -56
23 l-30 -1 30 -4z"/>
<path d="M3757 8955 c3 -8 9 -12 14 -9 12 7 11 11 -5 17 -10 4 -13 1 -9 -8z"/>
<path d="M6655 8960 c3 -5 8 -10 11 -10 2 0 4 5 4 10 0 6 -5 10 -11 10 -5 0
-7 -4 -4 -10z"/>
<path d="M3680 8950 c0 -5 5 -10 10 -10 6 0 10 5 10 10 0 6 -4 10 -10 10 -5 0
-10 -4 -10 -10z"/>
<path d="M3790 8950 c0 -5 5 -10 10 -10 6 0 10 5 10 10 0 6 -4 10 -10 10 -5 0
-10 -4 -10 -10z"/>
<path d="M3855 8950 c-3 -5 -1 -10 4 -10 6 0 11 5 11 10 0 6 -2 10 -4 10 -3 0
-8 -4 -11 -10z"/>
<path d="M3290 8920 c0 -16 5 -30 10 -30 6 0 10 14 10 30 0 17 -4 30 -10 30
-5 0 -10 -13 -10 -30z"/>
<path d="M3330 8920 c0 -16 5 -30 10 -30 6 0 10 14 10 30 0 17 -4 30 -10 30
-5 0 -10 -13 -10 -30z"/>
<path d="M3883 8936 c4 -9 -3 -17 -16 -21 -15 -4 -18 -8 -9 -12 8 -3 19 0 24
5 8 8 17 8 30 1 12 -6 18 -6 18 1 0 5 -7 10 -15 10 -9 0 -12 6 -9 15 4 10 0
15 -11 15 -11 0 -15 -5 -12 -14z"/>
<path d="M3620 8924 c-20 -11 -21 -14 -7 -14 10 0 25 7 33 15 19 18 8 18 -26
-1z"/>
<path d="M2810 8920 c0 -5 14 -10 30 -10 17 0 30 5 30 10 0 6 -13 10 -30 10
-16 0 -30 -4 -30 -10z"/>
<path d="M3966 8913 c-6 -14 -5 -15 5 -6 7 7 10 15 7 18 -3 3 -9 -2 -12 -12z"/>
<path d="M6625 8885 c-33 -37 -42 -55 -26 -55 6 0 11 7 11 15 0 18 45 49 59
41 5 -4 9 3 8 14 -2 28 -17 24 -52 -15z"/>
<path d="M3738 8903 c7 -3 16 -2 19 1 4 3 -2 6 -13 5 -11 0 -14 -3 -6 -6z"/>
<path d="M3134 8884 c3 -9 6 -18 6 -21 0 -3 7 0 15 7 17 14 11 30 -12 30 -10
0 -13 -6 -9 -16z"/>
<path d="M3360 8878 c0 -9 -6 -18 -12 -21 -10 -4 -10 -7 0 -18 9 -10 12 -10
12 -1 0 9 5 10 19 2 30 -16 33 4 6 30 -20 19 -25 20 -25 8z"/>
<path d="M3580 8875 c7 -9 15 -13 17 -11 7 7 -7 26 -19 26 -6 0 -6 -6 2 -15z"/>
<path d="M3658 8883 c7 -3 16 -2 19 1 4 3 -2 6 -13 5 -11 0 -14 -3 -6 -6z"/>
<path d="M3835 8880 c-3 -5 -2 -17 3 -26 6 -11 11 -13 16 -5 4 6 2 11 -4 11
-7 0 -10 7 -6 15 6 17 0 20 -9 5z"/>
<path d="M3028 8867 c8 -10 5 -13 -15 -12 -14 0 -28 -6 -30 -12 -6 -17 22 -27
45 -18 9 5 25 7 35 6 10 -1 17 4 17 13 0 9 -7 16 -15 16 -8 0 -15 5 -15 10 0
6 -7 10 -16 10 -12 0 -14 -3 -6 -13z"/>
<path d="M3210 8855 c0 -14 4 -25 8 -25 5 0 14 11 20 25 10 22 9 25 -8 25 -15
0 -20 -7 -20 -25z"/>
<path d="M3460 8870 c0 -5 7 -10 15 -10 8 0 15 5 15 10 0 6 -7 10 -15 10 -8 0
-15 -4 -15 -10z"/>
<path d="M3505 8840 c3 -5 8 -10 11 -10 2 0 4 5 4 10 0 6 -5 10 -11 10 -5 0
-7 -4 -4 -10z"/>
<path d="M3874 8811 c-10 -11 -22 -17 -28 -14 -6 3 -8 2 -3 -2 4 -5 16 -9 27
-10 11 -1 18 1 15 3 -3 3 0 11 7 19 6 7 8 16 5 19 -3 3 -13 -3 -23 -15z"/>
<path d="M3416 8811 c-3 -5 1 -14 9 -21 13 -10 15 -9 15 9 0 21 -14 28 -24 12z"/>
<path d="M3585 8810 c-3 -5 -1 -10 4 -10 6 0 11 5 11 10 0 6 -2 10 -4 10 -3 0
-8 -4 -11 -10z"/>
<path d="M3195 8801 c-28 -6 -28 -7 -8 -13 13 -4 27 0 34 8 6 8 10 13 8 13 -2
-1 -17 -4 -34 -8z"/>
<path d="M3668 8803 c10 -4 9 -8 -5 -19 -17 -13 -17 -13 0 -14 9 0 17 5 17 10
0 6 8 10 18 11 14 0 14 2 -3 9 -11 5 -24 9 -30 9 -5 -1 -4 -3 3 -6z"/>
<path d="M3755 8787 c17 -8 32 -13 34 -11 7 7 -3 12 -34 19 l-30 6 30 -14z"/>
<path d="M3810 8789 c0 -5 5 -7 10 -4 6 3 10 8 10 11 0 2 -4 4 -10 4 -5 0 -10
-5 -10 -11z"/>
<path d="M3343 8762 c-13 -2 -23 -8 -23 -14 0 -6 8 -8 19 -5 11 2 24 -3 32
-14 15 -21 29 -25 29 -9 0 20 -35 46 -57 42z"/>
<path d="M3405 8760 c3 -5 8 -10 11 -10 2 0 4 5 4 10 0 6 -5 10 -11 10 -5 0
-7 -4 -4 -10z"/>
<path d="M3800 8760 c-24 -8 -24 -8 7 -9 17 -1 35 4 38 9 7 11 -9 11 -45 0z"/>
<path d="M3555 8750 c3 -5 13 -10 21 -10 8 0 14 5 14 10 0 6 -9 10 -21 10 -11
0 -17 -4 -14 -10z"/>
<path d="M3710 8750 c0 -5 5 -10 10 -10 6 0 10 5 10 10 0 6 -4 10 -10 10 -5 0
-10 -4 -10 -10z"/>
<path d="M3520 8737 c0 -10 8 -17 18 -17 9 0 13 4 7 8 -5 4 -13 11 -17 16 -5
5 -8 2 -8 -7z"/>
<path d="M3596 8733 c-3 -4 -6 -13 -6 -22 0 -10 3 -12 8 -5 4 6 14 13 21 16
13 4 12 5 -1 10 -9 4 -19 4 -22 1z"/>
<path d="M3155 8720 c-17 -7 -15 -9 13 -9 17 -1 32 4 32 9 0 12 -17 12 -45 0z"/>
<path d="M3280 8718 c0 -8 18 -18 44 -24 33 -7 43 -7 39 2 -2 7 -15 15 -28 18
-13 3 -30 9 -39 12 -10 4 -16 1 -16 -8z"/>
<path d="M3798 8673 c-59 -80 -86 -108 -106 -108 -11 0 -16 -7 -14 -18 4 -25
-16 -47 -36 -40 -14 6 -15 4 -4 -9 11 -13 9 -19 -13 -36 -14 -11 -25 -24 -25
-28 -1 -16 -50 -65 -59 -60 -5 4 -7 -4 -3 -16 4 -16 2 -19 -8 -13 -9 6 -12 4
-8 -6 7 -19 -37 -63 -53 -53 -8 4 -9 3 -5 -5 4 -6 2 -18 -4 -26 -7 -8 -10 -15
-6 -15 3 0 -10 -21 -29 -46 -56 -73 -60 -84 -32 -84 17 0 33 12 53 43 16 23
39 56 51 72 13 17 27 35 31 40 18 23 136 190 226 318 54 77 95 141 92 144 -2
3 -24 -22 -48 -54z"/>
<path d="M3435 8710 c3 -5 8 -10 11 -10 2 0 4 5 4 10 0 6 -5 10 -11 10 -5 0
-7 -4 -4 -10z"/>
<path d="M3730 8709 c0 -5 5 -7 10 -4 6 3 10 8 10 11 0 2 -4 4 -10 4 -5 0 -10
-5 -10 -11z"/>
<path d="M3760 8701 c-13 -25 -13 -28 3 -28 6 0 12 11 12 24 0 28 -1 28 -15 4z"/>
<path d="M3795 8709 c-4 -6 -5 -12 -2 -15 2 -3 7 2 10 11 7 17 1 20 -8 4z"/>
<path d="M3250 8690 c0 -11 5 -20 10 -20 6 0 10 9 10 20 0 11 -4 20 -10 20 -5
0 -10 -9 -10 -20z"/>
<path d="M3557 8703 c-11 -10 -8 -43 3 -43 6 0 10 11 10 25 0 26 -2 29 -13 18z"/>
<path d="M3400 8690 c0 -5 5 -10 10 -10 6 0 10 5 10 10 0 6 -4 10 -10 10 -5 0
-10 -4 -10 -10z"/>
<path d="M3518 8670 c-3 -17 -1 -33 4 -36 4 -3 8 11 8 30 0 44 -6 47 -12 6z"/>
<path d="M3711 8684 c0 -11 3 -14 6 -6 3 7 2 16 -1 19 -3 4 -6 -2 -5 -13z"/>
<path d="M3734 8635 c4 -24 16 -30 16 -7 0 12 -4 22 -9 22 -5 0 -8 -7 -7 -15z"/>
<path d="M3121 8624 c0 -11 3 -14 6 -6 3 7 2 16 -1 19 -3 4 -6 -2 -5 -13z"/>
<path d="M3325 8630 c4 -6 11 -8 16 -5 14 9 11 15 -7 15 -8 0 -12 -5 -9 -10z"/>
<path d="M3470 8631 c0 -6 5 -13 10 -16 6 -3 10 1 10 9 0 9 -4 16 -10 16 -5 0
-10 -4 -10 -9z"/>
<path d="M3405 8620 c-3 -5 3 -10 14 -10 12 0 21 5 21 10 0 6 -6 10 -14 10 -8
0 -18 -4 -21 -10z"/>
<path d="M3707 8609 c4 -13 8 -18 11 -10 2 7 -1 18 -6 23 -8 8 -9 4 -5 -13z"/>
<path d="M3610 8610 c0 -5 5 -10 10 -10 6 0 10 5 10 10 0 6 -4 10 -10 10 -5 0
-10 -4 -10 -10z"/>
<path d="M3670 8611 c0 -5 7 -15 17 -22 15 -13 15 -12 4 9 -12 23 -21 28 -21
13z"/>
<path d="M3200 8590 c0 -5 9 -10 21 -10 11 0 17 5 14 10 -3 6 -13 10 -21 10
-8 0 -14 -4 -14 -10z"/>
<path d="M3516 8584 c-9 -24 -7 -27 9 -10 17 17 19 26 6 26 -5 0 -12 -7 -15
-16z"/>
<path d="M3150 8574 c0 -12 -6 -15 -23 -10 -18 4 -23 1 -24 -14 -2 -26 27 -26
50 0 19 23 22 40 7 40 -5 0 -10 -7 -10 -16z"/>
<path d="M3272 8540 c7 -11 19 -20 27 -20 11 0 9 6 -7 20 -12 11 -24 20 -27
20 -3 0 0 -9 7 -20z"/>
<path d="M3405 8550 c4 -6 11 -8 16 -5 14 9 11 15 -7 15 -8 0 -12 -5 -9 -10z"/>
<path d="M3150 8510 c0 -5 7 -10 15 -10 8 0 15 5 15 10 0 6 -7 10 -15 10 -8 0
-15 -4 -15 -10z"/>
<path d="M3318 8493 c7 -3 16 -2 19 1 4 3 -2 6 -13 5 -11 0 -14 -3 -6 -6z"/>
<path d="M3605 8480 c-3 -6 1 -7 9 -4 18 7 21 14 7 14 -6 0 -13 -4 -16 -10z"/>
<path d="M3050 8430 c0 -5 7 -10 16 -10 8 0 12 5 9 10 -3 6 -10 10 -16 10 -5
0 -9 -4 -9 -10z"/>
<path d="M3555 8429 c-4 -6 -5 -12 -2 -15 2 -3 7 2 10 11 7 17 1 20 -8 4z"/>
<path d="M3080 8399 c0 -5 5 -7 10 -4 6 3 10 8 10 11 0 2 -4 4 -10 4 -5 0 -10
-5 -10 -11z"/>
<path d="M3276 8385 c4 -8 8 -15 10 -15 2 0 4 7 4 15 0 8 -4 15 -10 15 -5 0
-7 -7 -4 -15z"/>
<path d="M2950 8276 c0 -9 5 -16 10 -16 6 0 10 4 10 9 0 6 -4 13 -10 16 -5 3
-10 -1 -10 -9z"/>
<path d="M3100 8280 c0 -5 5 -10 10 -10 6 0 10 5 10 10 0 6 -4 10 -10 10 -5 0
-10 -4 -10 -10z"/>
<path d="M2810 8181 c0 -6 5 -13 10 -16 6 -3 10 1 10 9 0 9 -4 16 -10 16 -5 0
-10 -4 -10 -9z"/>
<path d="M2785 8150 c-3 -5 3 -10 14 -10 10 0 28 -3 38 -6 10 -3 7 2 -7 10
-30 18 -37 19 -45 6z"/>
<path d="M3018 8123 c6 -2 18 -2 25 0 6 3 1 5 -13 5 -14 0 -19 -2 -12 -5z"/>
<path d="M1224 8021 c0 -22 4 -34 8 -28 11 17 10 67 -1 67 -5 0 -8 -18 -7 -39z"/>
<path d="M974 7635 c-3 -14 -4 -94 0 -178 3 -83 6 -752 6 -1484 l0 -1333 5465
0 5465 0 -2 1508 -3 1507 -5462 3 -5463 2 -6 -25z m10853 -1482 c1 -1017 -2
-1405 -10 -1410 -14 -9 -10440 -14 -10627 -5 l-145 7 -1 1400 c-1 770 0 1403
3 1408 2 4 2428 6 5391 5 l5387 -3 2 -1402z"/>
<path d="M1272 7372 c-10 -6 -12 -259 -10 -1228 l3 -1219 2885 0 2885 0 3
1223 2 1222 -2834 0 c-1558 0 -2853 2 -2877 5 -24 3 -50 2 -57 -3z m962 -782
c22 -8 26 -16 26 -49 0 -48 -2 -48 -152 -50 -62 -1 -116 -5 -120 -9 -4 -4 -9
-165 -10 -357 l-3 -350 -55 0 -55 0 -3 358 -2 357 -93 1 c-50 1 -101 1 -113 0
-11 -1 -32 3 -47 8 -22 9 -27 17 -27 46 0 28 5 38 23 45 30 12 599 13 631 0z
m650 0 c38 -4 72 -12 75 -17 3 -5 18 -14 33 -20 52 -23 104 -111 115 -196 8
-56 -25 -160 -64 -202 -17 -19 -50 -44 -72 -56 -23 -11 -41 -26 -41 -33 0 -6
41 -71 90 -145 49 -73 87 -137 84 -142 -6 -11 -105 -12 -119 -1 -11 8 -32 37
-123 172 -36 52 -70 98 -76 102 -20 14 -153 9 -164 -5 -7 -8 -13 -68 -14 -143
l-3 -129 -37 -3 c-20 -2 -46 2 -58 8 -20 10 -20 18 -20 400 l0 389 22 15 c18
13 52 16 163 16 77 -1 171 -5 209 -10z m834 4 c12 -4 22 -11 22 -16 0 -5 9
-30 21 -56 11 -26 27 -63 35 -82 8 -19 21 -48 29 -63 8 -16 15 -35 15 -42 0
-7 6 -26 14 -42 8 -15 22 -46 31 -68 10 -22 24 -53 31 -68 8 -16 14 -35 14
-42 0 -7 7 -26 15 -42 8 -15 22 -46 31 -68 9 -22 24 -58 35 -81 10 -23 19 -46
19 -52 0 -6 8 -23 17 -40 25 -43 12 -62 -41 -62 -47 0 -76 18 -76 49 0 9 -7
26 -15 37 -8 10 -15 28 -15 38 0 11 -10 30 -22 43 -21 22 -26 23 -198 23 -164
0 -178 -1 -198 -20 -12 -12 -22 -29 -22 -38 0 -10 -6 -26 -14 -37 -7 -11 -17
-34 -20 -52 -6 -27 -13 -33 -40 -39 -19 -3 -44 -4 -57 -2 -40 5 -38 22 21 153
5 11 19 45 31 75 11 30 27 69 34 85 8 17 24 57 37 90 13 33 26 62 31 63 4 2 7
13 7 24 0 11 6 32 14 46 27 53 56 119 56 129 0 5 6 23 14 39 7 16 22 48 32 71
22 50 53 62 112 47z m1019 -19 c84 -37 109 -52 155 -98 26 -26 48 -54 48 -62
0 -8 4 -15 9 -15 37 0 69 -290 38 -355 -43 -92 -56 -113 -98 -154 -25 -25 -68
-57 -95 -70 -27 -13 -58 -29 -69 -35 -24 -13 -404 -21 -422 -8 -10 6 -14 103
-19 399 l-6 390 23 18 c21 15 44 16 211 11 142 -4 197 -9 225 -21z m1021 19
c18 -5 22 -13 22 -50 0 -49 8 -46 -110 -48 -36 -1 -116 -2 -177 -4 l-113 -2 0
-119 c0 -99 3 -120 16 -125 9 -3 92 -6 185 -6 l170 0 -3 -47 -3 -48 -177 -3
c-209 -3 -190 13 -186 -157 l3 -110 200 -6 c110 -3 201 -6 203 -7 2 -1 2 -21
0 -44 l-3 -43 -244 -3 c-165 -1 -248 1 -257 9 -10 8 -13 91 -13 399 -1 339 1
391 15 404 13 14 49 16 232 16 119 0 227 -3 240 -6z m786 -29 c66 -39 114
-101 126 -164 24 -129 -19 -239 -117 -296 -59 -34 -60 -44 -14 -105 14 -19 31
-43 36 -52 6 -9 32 -48 58 -87 27 -38 46 -75 42 -81 -7 -11 -105 -14 -120 -2
-5 4 -14 14 -20 24 -16 26 -93 142 -102 153 -5 6 -16 23 -26 38 -38 60 -52 67
-124 67 -38 0 -73 -4 -80 -8 -9 -5 -13 -50 -15 -142 l-3 -135 -55 0 -55 0 -3
400 c-2 372 -1 401 15 414 14 10 59 12 215 8 191 -5 197 -6 242 -32z"/>
<path d="M2619 6484 c-5 -7 -8 -76 -7 -155 l3 -144 138 -3 c129 -2 139 -1 168
20 97 72 90 209 -14 265 -40 22 -273 35 -288 17z"/>
<path d="M3657 6393 c-4 -3 -7 -15 -7 -26 0 -10 -7 -31 -14 -45 -15 -28 -27
-56 -65 -152 -12 -30 -27 -65 -33 -77 -6 -13 -8 -26 -4 -30 13 -14 252 -16
276 -3 16 9 19 15 11 23 -6 6 -11 18 -11 26 0 14 -27 80 -56 133 -8 14 -14 35
-14 46 0 12 -4 24 -10 27 -5 3 -14 24 -20 45 -10 38 -34 53 -53 33z"/>
<path d="M4409 6486 c-10 -11 -13 -556 -3 -593 6 -22 11 -23 101 -23 227 0
352 86 373 259 10 73 -4 178 -26 202 -8 8 -14 21 -14 27 0 22 -97 94 -153 113
-62 21 -261 31 -278 15z"/>
<path d="M6203 6485 c-11 -8 -13 -41 -11 -155 l3 -145 132 -3 c123 -2 135 -1
167 20 22 15 43 40 56 70 24 57 25 67 3 115 -37 79 -74 96 -222 103 -70 3
-119 1 -128 -5z"/>
<path d="M7250 6580 c-12 -7 -12 -12 -2 -22 6 -6 12 -21 12 -33 0 -12 7 -30
15 -41 8 -10 15 -28 15 -40 0 -11 7 -29 15 -40 8 -10 15 -28 15 -40 0 -11 7
-29 15 -40 8 -10 15 -26 15 -34 0 -8 9 -33 20 -55 11 -22 19 -48 20 -57 0 -9
6 -29 14 -45 27 -54 46 -104 46 -121 0 -9 7 -26 15 -36 8 -11 15 -28 15 -37 0
-10 6 -30 14 -46 8 -15 23 -49 35 -75 l21 -48 104 0 c98 0 105 1 119 24 9 13
19 37 23 52 4 16 13 38 20 49 8 11 14 29 14 40 0 11 7 29 15 39 8 11 15 29 15
40 0 12 7 30 15 40 8 11 15 29 15 41 0 12 7 30 15 41 8 10 15 28 15 40 0 11 7
29 15 40 8 10 15 26 15 34 0 8 6 27 14 41 7 14 16 39 20 55 4 16 13 43 20 59
34 75 46 107 46 123 0 10 6 24 12 30 23 23 -12 32 -119 32 l-103 0 -18 -42
c-35 -80 -62 -153 -62 -169 0 -8 -5 -20 -11 -26 -6 -6 -14 -26 -19 -44 -21
-85 -69 -191 -82 -183 -4 3 -8 16 -8 28 0 13 -6 29 -14 35 -8 6 -16 24 -19 39
-5 25 -27 93 -46 137 -26 61 -51 132 -51 142 0 7 -9 28 -21 47 l-21 36 -101 0
c-56 0 -109 -5 -117 -10z"/>
<path d="M8176 6575 c-9 -25 -7 -778 2 -793 6 -9 36 -12 113 -10 l104 3 0 405
0 405 -106 3 c-91 2 -108 0 -113 -13z"/>
<path d="M8585 6577 c-3 -6 -4 -190 -3 -407 l3 -395 99 -3 c64 -2 103 1 112 9
11 9 14 51 14 200 0 125 4 189 10 189 20 0 73 -67 256 -322 l55 -78 83 0 c55
0 87 4 94 13 7 8 8 140 4 407 l-7 395 -85 3 c-141 5 -129 22 -132 -196 -2
-136 -6 -187 -15 -187 -6 0 -57 61 -112 135 -55 74 -106 142 -114 151 -8 9
-25 32 -38 50 -13 19 -28 37 -34 41 -18 14 -185 9 -190 -5z"/>
<path d="M9737 6566 c-9 -13 -19 -37 -23 -52 -4 -16 -13 -38 -20 -49 -8 -11
-14 -29 -14 -40 0 -11 -7 -29 -15 -39 -8 -11 -15 -30 -15 -42 0 -12 -7 -27
-15 -34 -8 -7 -15 -21 -15 -31 0 -11 -9 -36 -20 -56 -11 -21 -20 -45 -20 -55
0 -9 -4 -19 -9 -22 -5 -3 -12 -18 -15 -33 -4 -16 -13 -41 -20 -58 -8 -16 -22
-48 -31 -70 -10 -22 -24 -53 -31 -68 -8 -16 -14 -39 -14 -51 0 -12 -7 -32 -16
-44 -32 -46 -15 -53 113 -50 l117 3 6 30 c4 17 15 43 24 58 l18 27 133 0 c115
0 134 -2 148 -18 10 -10 17 -28 17 -40 0 -12 9 -31 20 -42 18 -18 33 -20 130
-20 108 0 110 0 110 23 0 13 -7 32 -15 43 -8 10 -15 25 -15 32 0 8 -6 28 -14
45 -8 18 -24 59 -36 92 -13 33 -29 74 -36 90 -7 17 -20 46 -28 67 -9 20 -16
42 -16 50 0 8 -7 23 -15 34 -8 10 -15 29 -15 41 0 12 -4 24 -10 28 -5 3 -14
20 -19 38 -5 18 -19 57 -31 87 -12 30 -26 68 -30 84 -19 59 -33 66 -145 66
-97 0 -104 -1 -118 -24z m142 -300 c12 -18 21 -42 21 -52 0 -11 6 -28 14 -39
7 -11 16 -42 20 -68 l7 -48 -83 3 -83 3 3 30 c1 17 7 39 12 50 13 27 40 105
47 133 7 31 18 28 42 -12z"/>
<path d="M10336 6581 c-4 -5 -1 -20 4 -33 17 -36 42 -83 49 -88 3 -3 22 -36
42 -75 66 -125 74 -140 81 -145 4 -3 12 -17 17 -30 6 -14 28 -54 49 -90 37
-65 37 -65 42 -205 l5 -140 106 -3 107 -3 4 25 c3 14 3 79 1 144 l-5 118 37
69 c21 39 44 77 51 86 8 8 14 23 14 32 0 9 4 18 9 21 5 3 20 27 34 53 13 27
34 64 46 83 11 19 27 49 36 65 8 17 24 44 34 60 40 61 34 65 -95 65 -133 0
-126 4 -175 -97 -17 -35 -34 -65 -40 -68 -5 -4 -9 -14 -9 -24 0 -10 -7 -24
-15 -31 -8 -7 -15 -21 -15 -31 0 -23 -17 -34 -34 -20 -8 6 -42 67 -76 136 -34
68 -69 126 -77 129 -24 10 -221 7 -227 -3z"/>
<path d="M10756 4431 l-59 -6 -17 -60 c-73 -255 -234 -477 -451 -621 -210
-140 -486 -209 -732 -184 -181 18 -417 93 -537 171 -77 49 -172 138 -163 152
3 5 1 7 -4 4 -6 -4 -16 0 -23 8 -11 13 -10 14 5 9 15 -6 16 -4 5 17 -7 13 -21
36 -31 50 -14 20 -15 29 -6 38 9 9 7 13 -11 17 -12 4 -22 13 -22 21 0 12 -3
13 -14 3 -12 -9 -17 -8 -27 8 -7 11 -19 18 -26 15 -8 -3 -13 -2 -12 3 4 22 -2
45 -10 40 -5 -3 -15 2 -22 12 -13 16 -13 16 5 2 18 -14 19 -13 13 10 -4 14 -7
28 -7 32 0 4 -7 5 -16 1 -12 -4 -14 0 -8 21 4 17 2 26 -5 26 -7 0 -11 6 -10
13 3 21 -28 82 -34 66 -3 -9 -6 -9 -6 -2 -1 6 4 15 9 18 6 3 10 15 10 26 0 11
4 18 9 14 5 -3 12 -1 15 4 4 5 -2 12 -13 16 -10 3 -21 14 -24 24 -4 18 -59 31
-129 31 -28 0 -29 -2 -23 -32 11 -47 72 -194 111 -267 28 -52 36 -79 40 -137
6 -93 36 -212 67 -261 40 -65 42 -69 19 -49 -54 47 -115 226 -105 307 5 42 3
49 -12 49 -16 0 -17 -7 -11 -75 4 -41 12 -88 17 -105 6 -17 8 -37 5 -46 -4
-10 -2 -13 6 -8 7 5 9 2 5 -9 -3 -9 -1 -18 6 -21 9 -5 9 -7 0 -12 -10 -4 -9
-13 4 -37 8 -18 21 -35 27 -39 6 -4 7 -8 3 -8 -5 0 -1 -10 7 -22 9 -12 16 -28
16 -36 0 -7 -32 -57 -72 -110 -120 -162 -171 -233 -245 -337 -95 -133 -107
-150 -316 -440 -24 -33 -83 -116 -131 -185 -49 -69 -95 -132 -102 -140 -8 -8
-35 -46 -61 -85 -25 -38 -49 -72 -53 -75 -3 -3 -17 -21 -30 -40 -33 -49 -202
-281 -218 -300 -23 -26 -122 -170 -144 -210 -19 -33 -21 -42 -10 -77 6 -21 26
-60 43 -86 27 -41 31 -57 36 -143 4 -68 9 -91 15 -79 6 9 8 25 5 36 -3 10 -1
19 4 19 5 0 9 16 9 36 0 33 2 35 28 32 26 -3 27 -5 30 -74 2 -61 6 -73 22 -77
27 -7 30 -1 30 65 0 56 1 59 23 56 19 -3 23 -10 27 -63 4 -52 8 -60 25 -60 17
0 21 8 25 60 4 52 8 60 27 63 20 3 22 -1 25 -55 3 -51 6 -58 26 -61 20 -3 22
0 22 46 0 123 34 157 45 44 3 -37 7 -74 8 -82 1 -8 12 -16 23 -18 20 -3 22 3
29 92 5 69 11 96 20 96 9 0 15 -27 20 -96 l7 -95 27 3 c26 3 26 3 29 105 3
101 4 102 40 140 19 21 40 37 45 35 5 -2 7 6 4 17 -3 13 3 23 19 32 13 7 24
18 24 25 0 7 8 19 18 26 9 7 17 19 18 26 3 37 5 42 17 39 8 -1 12 10 12 33 0
20 5 35 12 35 13 0 53 48 53 64 0 6 12 18 28 28 15 10 29 20 32 23 16 20 129
80 150 81 l25 1 -27 9 c-25 10 -40 6 -112 -29 -5 -3 -7 2 -4 10 4 8 2 21 -2
28 -5 8 -3 19 3 26 31 35 37 44 37 59 0 8 3 15 8 15 11 0 72 96 72 113 0 8 9
22 19 31 11 10 25 32 32 49 22 52 42 65 115 74 88 10 95 30 15 39 -59 6 -60 7
-46 27 14 19 13 23 -8 35 -16 10 -17 12 -3 8 26 -9 46 11 46 44 0 18 8 31 25
40 28 15 33 30 10 30 -8 0 -15 5 -15 10 0 6 9 10 21 10 12 0 23 8 26 20 3 10
13 22 23 25 29 9 33 35 7 45 -21 8 -21 9 6 9 15 1 27 7 27 14 0 7 9 23 20 35
24 26 25 29 3 35 -14 4 -14 5 3 6 12 0 27 8 34 16 16 19 5 49 -15 41 -8 -3
-15 -1 -15 4 0 6 10 10 23 10 28 1 57 22 57 44 0 10 5 14 10 11 6 -3 10 0 10
9 0 8 3 16 8 18 4 2 16 14 27 28 11 14 26 25 33 25 6 0 11 3 10 7 -5 14 68 81
107 98 22 10 32 19 23 19 -28 1 -21 21 18 55 20 17 44 40 53 50 47 56 119 116
160 134 76 34 84 35 141 31 112 -8 357 -2 430 10 41 6 121 25 177 42 56 16
123 32 150 35 26 4 53 10 58 14 6 5 28 11 50 15 22 4 45 11 50 15 6 4 39 18
75 30 36 13 71 28 78 33 6 5 12 6 12 3 0 -4 17 2 38 13 20 11 61 30 90 42 28
12 52 25 52 30 0 5 7 9 16 9 8 0 35 14 59 30 24 17 48 30 54 30 6 0 11 3 11 8
0 4 17 18 38 32 46 31 62 46 62 58 0 5 9 12 20 15 12 3 20 14 20 26 0 12 5 21
10 21 6 0 11 12 11 28 2 23 2 24 6 5 6 -31 21 -29 36 4 9 20 9 27 0 30 -9 3
-9 12 -2 30 5 13 6 29 3 35 -4 5 0 21 7 36 11 20 11 26 2 29 -16 6 -17 34 -2
31 8 -2 11 16 10 52 -2 91 -6 115 -16 123 -7 4 -6 10 1 15 17 11 24 53 11 67
-17 16 -67 25 -67 11 0 -8 -2 -8 -8 0 -11 17 -41 21 -106 15z m-2219 -67 c-9
-9 -27 6 -27 22 0 13 2 13 16 -1 9 -9 14 -18 11 -21z m2353 32 c0 -3 -4 -8
-10 -11 -5 -3 -10 -1 -10 4 0 6 5 11 10 11 6 0 10 -2 10 -4z m-2358 -68 c-7
-7 -12 -8 -12 -2 0 14 12 26 19 19 2 -3 -1 -11 -7 -17z m2408 -98 c0 -5 -4
-10 -10 -10 -5 0 -10 5 -10 10 0 6 5 10 10 10 6 0 10 -4 10 -10z m-53 -172
c-3 -8 -6 -5 -6 6 -1 11 2 17 5 13 3 -3 4 -12 1 -19z m23 -28 c0 -5 -4 -10
-10 -10 -5 0 -10 5 -10 10 0 6 5 10 10 10 6 0 10 -4 10 -10z m-2160 -850 c0
-5 -5 -10 -11 -10 -5 0 -7 5 -4 10 3 6 8 10 11 10 2 0 4 -4 4 -10z m-80 -100
c-6 -11 -13 -20 -16 -20 -2 0 0 9 6 20 6 11 13 20 16 20 2 0 0 -9 -6 -20z m43
-14 c4 -10 1 -13 -9 -9 -7 3 -14 9 -14 14 0 14 17 10 23 -5z m-73 -40 c0 -3
-4 -8 -10 -11 -5 -3 -10 -1 -10 4 0 6 5 11 10 11 6 0 10 -2 10 -4z m-35 -74
c-3 -3 -11 0 -18 7 -9 10 -8 11 6 5 10 -3 15 -9 12 -12z"/>
<path d="M0 3865 c0 -450 3 -565 13 -559 39 24 169 123 207 159 25 23 81 69
125 103 44 33 93 72 109 86 33 30 37 31 54 14 26 -26 44 -9 -263 -242 -93 -71
-187 -140 -207 -155 l-37 -26 -1 -609 0 -608 38 32 c37 33 115 105 252 234 42
39 126 117 187 174 l111 102 6 103 c4 56 11 251 17 432 5 182 12 369 14 417 4
64 2 90 -8 100 -8 7 -12 19 -9 26 2 6 -1 12 -7 12 -6 0 -11 -7 -11 -15 0 -17
-16 -20 -25 -5 -3 5 -11 7 -18 5 -19 -8 -34 37 -25 73 5 18 13 32 18 32 21 0
9 20 -12 21 -13 1 -5 5 16 8 22 3 41 11 43 18 3 7 -4 10 -19 6 l-23 -5 24 20
c49 40 75 224 76 532 l0 75 -322 3 -323 2 0 -565z"/>
<path d="M5331 4308 c0 -62 2 -108 4 -103 8 21 10 215 3 215 -5 0 -8 -51 -7
-112z"/>
<path d="M6092 4340 l1 -85 7 70 c4 39 4 77 -1 85 -5 9 -8 -19 -7 -70z"/>
<path d="M11760 3830 c0 -13 7 -20 20 -20 25 0 25 -8 3 -27 -17 -13 -17 -14 2
-11 30 5 32 44 3 52 -22 7 -22 7 -3 16 19 8 19 9 -2 9 -17 1 -23 -5 -23 -19z"/>
<path d="M11843 3843 c-18 -7 -16 -48 2 -63 8 -7 22 -10 30 -6 20 7 20 62 -1
70 -9 3 -16 6 -17 5 -1 0 -8 -3 -14 -6z m33 -24 c10 -17 -13 -36 -27 -22 -12
12 -4 33 11 33 5 0 12 -5 16 -11z"/>
<path d="M11923 3843 c-15 -5 -17 -42 -3 -63 7 -12 13 -12 27 -4 36 22 14 81
-24 67z m27 -33 c0 -11 -4 -20 -9 -20 -14 0 -23 18 -16 30 10 17 25 11 25 -10z"/>
<path d="M10895 3830 c3 -5 10 -10 16 -10 5 0 9 5 9 10 0 6 -7 10 -16 10 -8 0
-12 -4 -9 -10z"/>
<path d="M12025 3829 c-4 -5 -4 -21 -1 -35 5 -19 12 -25 29 -22 25 3 36 43 17
62 -9 8 -11 6 -6 -9 8 -30 -7 -50 -24 -30 -10 12 -10 18 0 30 8 9 9 15 2 15
-6 0 -14 -5 -17 -11z"/>
<path d="M12100 3821 c0 -32 11 -51 30 -51 21 0 33 25 25 51 -9 26 -55 26 -55
0z m43 3 c9 -10 -12 -46 -24 -39 -14 9 -11 45 4 45 8 0 17 -3 20 -6z"/>
<path d="M602 3784 c-7 -8 -8 -14 -3 -14 10 0 25 19 20 25 -2 1 -10 -3 -17
-11z"/>
<path d="M12785 3461 c-3 -5 -1 -12 5 -16 5 -3 10 1 10 9 0 18 -6 21 -15 7z"/>
<path d="M12792 3385 c0 -16 2 -22 5 -12 2 9 2 23 0 30 -3 6 -5 -1 -5 -18z"/>
<path d="M11817 3144 c-3 -6 -3 -24 2 -39 4 -16 10 -24 14 -19 3 6 3 24 -2 39
-4 16 -10 24 -14 19z"/>
<path d="M11867 3129 c-6 -22 7 -59 21 -59 38 1 43 73 6 78 -15 2 -23 -4 -27
-19z m40 -5 c8 -22 -15 -44 -26 -25 -10 16 -4 41 10 41 5 0 12 -7 16 -16z"/>
<path d="M11944 3124 c-4 -17 -1 -31 10 -42 15 -15 17 -15 32 0 22 22 11 68
-16 68 -13 0 -22 -9 -26 -26z m40 -1 c9 -22 -10 -41 -25 -26 -13 13 -5 43 10
43 5 0 12 -8 15 -17z"/>
<path d="M12053 3134 c-9 -24 14 -66 35 -62 21 4 29 57 10 69 -20 13 -38 11
-45 -7z m47 -24 c0 -23 -25 -27 -33 -6 -7 16 1 26 20 26 7 0 13 -9 13 -20z"/>
<path d="M12137 3144 c-24 -25 7 -82 39 -70 24 9 15 70 -11 74 -12 2 -24 0
-28 -4z m38 -34 c0 -22 -29 -18 -33 3 -3 14 1 18 15 15 10 -2 18 -10 18 -18z"/>
<path d="M11790 3100 c0 -5 5 -10 10 -10 6 0 10 5 10 10 0 6 -4 10 -10 10 -5
0 -10 -4 -10 -10z"/>
<path d="M8766 2945 c-3 -8 -1 -15 4 -15 6 0 10 7 10 15 0 8 -2 15 -4 15 -2 0
-6 -7 -10 -15z"/>
<path d="M11844 2420 c0 -11 4 -20 8 -20 4 0 8 9 8 20 0 11 -4 20 -8 20 -4 0
-8 -9 -8 -20z"/>
<path d="M11890 2411 c0 -34 12 -45 40 -36 12 4 20 15 19 28 l0 22 -11 -23
c-13 -27 -32 -24 -36 6 -2 15 3 22 20 25 20 4 20 4 -4 6 -25 1 -28 -3 -28 -28z"/>
<path d="M11970 2423 c0 -15 2 -15 9 -4 5 8 16 11 26 8 9 -4 14 -3 10 3 -11
17 -45 11 -45 -7z"/>
<path d="M12108 2430 c24 -10 25 -11 16 -34 -9 -23 -23 -20 -34 7 l-9 22 0
-23 c-1 -27 23 -39 45 -21 23 19 14 54 -16 56 -25 3 -25 3 -2 -7z"/>
<path d="M12164 2426 c-9 -25 0 -51 20 -54 20 -4 36 13 35 38 0 9 -5 6 -11 -8
-13 -27 -32 -24 -36 6 -2 15 3 22 20 25 l23 4 -23 2 c-12 0 -25 -5 -28 -13z"/>
<path d="M12011 2394 c0 -11 3 -14 6 -6 3 7 2 16 -1 19 -3 4 -6 -2 -5 -13z"/>
<path d="M11970 2391 c0 -10 19 -25 25 -20 1 2 -3 10 -11 17 -8 7 -14 8 -14 3z"/>
<path d="M6478 1948 c-2 -18 -2 -174 0 -345 2 -303 3 -313 22 -313 19 0 20 9
19 345 0 332 -1 345 -19 345 -14 0 -20 -8 -22 -32z"/>
<path d="M8467 1930 c3 -11 10 -23 16 -27 7 -4 8 0 4 11 -4 10 -7 22 -7 27 0
5 -4 9 -9 9 -5 0 -7 -9 -4 -20z"/>
<path d="M6580 1916 c0 -8 -3 -21 -6 -30 -4 -11 0 -16 12 -17 11 0 14 -3 7 -6
-10 -3 -13 -70 -13 -286 0 -186 4 -277 10 -267 8 13 10 12 10 -3 0 -11 5 -15
11 -11 8 4 9 80 5 258 -3 138 -5 279 -6 314 0 48 -3 62 -15 62 -8 0 -15 -6
-15 -14z m17 -208 c-3 -7 -5 -2 -5 12 0 14 2 19 5 13 2 -7 2 -19 0 -25z m0
-280 c-3 -8 -6 -5 -6 6 -1 11 2 17 5 13 3 -3 4 -12 1 -19z"/>
<path d="M1932 1730 c0 -14 2 -19 5 -12 2 6 2 18 0 25 -3 6 -5 1 -5 -13z"/>
<path d="M2521 1734 c0 -11 3 -14 6 -6 3 7 2 16 -1 19 -3 4 -6 -2 -5 -13z"/>
<path d="M2752 1725 c0 -16 2 -22 5 -12 2 9 2 23 0 30 -3 6 -5 -1 -5 -18z"/>
<path d="M6177 1743 c-4 -3 -7 -107 -7 -230 0 -216 1 -223 20 -223 19 0 20 7
20 230 0 185 -3 230 -13 230 -8 0 -17 -3 -20 -7z"/>
<path d="M2436 1731 c-4 -7 -5 -15 -2 -18 9 -9 19 4 14 18 -4 11 -6 11 -12 0z"/>
<path d="M11853 1723 c21 -6 22 -26 2 -43 -22 -19 -18 -30 11 -30 21 0 24 3
15 13 -8 10 -7 17 1 25 16 16 2 42 -24 41 -17 -1 -18 -2 -5 -6z"/>
<path d="M11921 1721 c-9 -6 -11 -18 -6 -40 5 -26 11 -32 28 -29 17 2 23 11
25 41 3 30 0 37 -15 37 -10 0 -24 -4 -32 -9z m39 -31 c0 -11 -7 -20 -15 -20
-8 0 -15 9 -15 20 0 11 7 20 15 20 8 0 15 -9 15 -20z"/>
<path d="M11994 1716 c-3 -9 -3 -28 0 -42 5 -19 12 -25 29 -22 18 2 22 9 22
38 0 29 -4 36 -23 38 -13 2 -25 -3 -28 -12z m42 -17 c3 -6 1 -16 -5 -22 -9 -9
-14 -8 -21 3 -9 15 -4 30 10 30 5 0 12 -5 16 -11z"/>
<path d="M12108 1706 c-6 -31 8 -56 32 -56 23 0 35 33 20 60 -15 28 -47 26
-52 -4z m42 -17 c0 -24 -23 -21 -28 4 -2 10 3 17 12 17 10 0 16 -9 16 -21z"/>
<path d="M12187 1710 c-8 -31 3 -60 24 -60 24 0 39 29 28 58 -10 28 -45 29
-52 2z m43 -20 c0 -11 -7 -20 -15 -20 -8 0 -15 9 -15 20 0 11 7 20 15 20 8 0
15 -9 15 -20z"/>
<path d="M5266 1688 c-3 -13 -6 -108 -6 -211 0 -174 1 -188 18 -185 15 3 17
21 17 207 0 142 -3 205 -11 208 -6 2 -14 -6 -18 -19z"/>
<path d="M6780 1495 c0 -198 1 -205 20 -205 19 0 20 7 20 189 0 197 -3 221
-26 221 -12 0 -14 -36 -14 -205z"/>
<path d="M5464 1677 c-2 -7 -3 -96 -2 -197 3 -167 5 -185 21 -188 16 -3 17 11
17 197 0 174 -2 201 -15 201 -9 0 -18 -6 -21 -13z"/>
<path d="M8178 1673 c-2 -4 -1 -93 2 -198 5 -188 5 -190 28 -193 l22 -3 -2
198 c-3 194 -3 198 -25 201 -11 2 -23 0 -25 -5z"/>
<path d="M6274 1647 c-2 -7 -3 -89 -2 -182 3 -152 5 -170 21 -173 16 -3 17 11
17 182 0 160 -2 186 -15 186 -9 0 -18 -6 -21 -13z"/>
<path d="M10470 1538 c0 -68 3 -153 7 -190 5 -57 9 -68 24 -68 18 0 19 10 19
123 0 67 -3 152 -7 190 -5 56 -9 67 -24 67 -18 0 -19 -10 -19 -122z"/>
<path d="M5567 1633 c-4 -3 -7 -82 -7 -175 0 -161 1 -168 20 -168 21 0 21 -3
21 265 0 36 0 70 0 75 -1 11 -24 14 -34 3z"/>
<path d="M5160 1459 c0 -157 1 -170 18 -167 15 3 17 21 20 171 3 163 3 167
-17 167 -20 0 -21 -5 -21 -171z"/>
<path d="M5666 1622 c-3 -5 -4 -80 -3 -168 2 -157 2 -159 25 -162 l22 -3 0
170 c0 163 -1 171 -19 171 -11 0 -22 -4 -25 -8z"/>
<path d="M10178 1458 c2 -90 8 -167 12 -172 5 -5 16 -6 24 -3 14 6 15 26 10
159 -3 84 -7 159 -9 166 -3 6 -13 12 -23 12 -18 0 -18 -9 -14 -162z"/>
<path d="M3114 1599 c-3 -6 -9 -75 -12 -155 -5 -139 -4 -144 15 -144 18 0 21
9 26 68 12 124 9 229 -8 235 -8 4 -17 1 -21 -4z"/>
<path d="M10378 1563 c-2 -5 -1 -66 2 -138 4 -107 8 -130 20 -130 13 0 14 20
11 130 -3 132 -5 145 -21 145 -5 0 -10 -3 -12 -7z"/>
<path d="M4237 1553 c-11 -10 -8 -251 2 -257 5 -4 16 -3 25 0 13 5 16 26 16
135 0 118 -2 129 -18 129 -10 0 -22 -3 -25 -7z"/>
<path d="M4340 1430 c0 -123 1 -130 20 -130 19 0 20 7 20 130 0 123 -1 130
-20 130 -19 0 -20 -7 -20 -130z"/>
<path d="M10286 1552 c-17 -4 -18 -11 -12 -101 3 -53 6 -113 6 -134 0 -34 3
-38 23 -35 22 3 22 5 19 133 -2 72 -7 133 -10 136 -4 3 -16 4 -26 1z"/>
<path d="M2599 1543 c-7 -58 -5 -233 2 -233 5 0 9 37 9 83 0 45 3 99 6 120 5
24 3 37 -5 37 -6 0 -11 -3 -12 -7z"/>
<path d="M5970 1420 c0 -123 1 -130 20 -130 19 0 20 7 20 130 0 123 -1 130
-20 130 -19 0 -20 -7 -20 -130z"/>
<path d="M6880 1420 c0 -123 1 -130 20 -130 19 0 20 7 20 130 0 123 -1 130
-20 130 -19 0 -20 -7 -20 -130z"/>
<path d="M7976 1532 c-2 -4 -2 -62 1 -130 6 -120 6 -122 29 -122 24 0 24 0 24
130 l0 130 -24 0 c-14 0 -27 -3 -30 -8z"/>
<path d="M8097 1532 c-16 -3 -17 -15 -15 -125 3 -118 4 -122 26 -125 22 -3 22
-2 22 122 0 69 -3 127 -7 129 -5 2 -16 2 -26 -1z"/>
<path d="M10078 1533 c-2 -5 -2 -61 0 -126 3 -93 7 -120 19 -124 28 -11 33 12
26 135 -5 108 -8 122 -24 122 -10 0 -19 -3 -21 -7z"/>
<path d="M4544 1515 c-8 -21 -1 -212 9 -221 17 -17 25 17 29 124 4 104 3 112
-14 112 -10 0 -21 -7 -24 -15z"/>
<path d="M7080 1410 c0 -113 1 -120 20 -120 19 0 20 7 20 120 0 113 -1 120
-20 120 -19 0 -20 -7 -20 -120z"/>
<path d="M7180 1409 c0 -119 0 -120 23 -117 18 2 22 9 21 38 -1 19 -2 72 -3
118 -1 75 -3 82 -21 82 -19 0 -20 -7 -20 -121z"/>
<path d="M8884 1516 c-8 -21 -1 -223 8 -232 4 -3 14 -4 23 0 13 5 15 24 13
123 -3 103 -5 118 -21 121 -9 2 -20 -4 -23 -12z"/>
<path d="M10577 1524 c-9 -9 -8 -120 1 -189 5 -37 12 -51 25 -53 16 -3 17 6
15 120 -3 101 -6 123 -18 126 -9 1 -19 0 -23 -4z"/>
<path d="M3321 1478 c1 -37 2 -39 9 -18 12 36 12 60 0 60 -5 0 -10 -19 -9 -42z"/>
<path d="M4650 1405 c0 -108 7 -134 27 -102 4 6 8 58 9 115 1 93 -1 102 -17
102 -17 0 -19 -10 -19 -115z"/>
<path d="M2917 1503 c-10 -9 -8 -65 1 -59 5 3 9 19 10 36 1 32 -1 34 -11 23z"/>
<path d="M8985 1500 c-7 -11 -5 -155 3 -196 3 -15 11 -24 23 -24 18 0 19 7 17
112 -3 96 -6 113 -20 116 -9 2 -19 -2 -23 -8z"/>
<path d="M2797 1493 c-4 -3 -7 -48 -7 -100 0 -77 3 -93 15 -93 21 0 23 11 27
113 3 74 1 87 -13 87 -9 0 -19 -3 -22 -7z"/>
<path d="M3000 1400 c0 -93 1 -100 20 -100 19 0 20 7 20 100 0 93 -1 100 -20
100 -19 0 -20 -7 -20 -100z"/>
<path d="M6702 1470 c0 -19 2 -27 5 -17 2 9 2 25 0 35 -3 9 -5 1 -5 -18z"/>
<path d="M2487 1483 c-4 -3 -7 -46 -7 -95 0 -80 2 -88 19 -88 17 0 20 9 23 76
4 94 -9 134 -35 107z"/>
<path d="M2697 1484 c-4 -4 -7 -47 -7 -96 0 -80 2 -89 18 -86 15 3 17 15 17
92 0 83 -8 109 -28 90z"/>
<path d="M3417 1464 c-4 -4 -7 -43 -7 -86 0 -71 2 -78 20 -78 18 0 20 7 20 75
0 41 0 78 1 83 0 10 -25 14 -34 6z"/>
<path d="M9084 1456 c-3 -8 -3 -46 0 -83 3 -37 5 -74 6 -80 0 -7 9 -13 20 -13
20 0 21 5 18 92 -3 79 -6 93 -21 96 -9 2 -20 -3 -23 -12z"/>
<path d="M9992 1384 c2 -60 7 -89 16 -92 10 -3 12 16 10 84 -2 60 -7 89 -16
92 -10 3 -12 -16 -10 -84z"/>
<path d="M1970 1383 c0 -42 3 -74 6 -71 8 9 10 148 2 148 -5 0 -8 -34 -8 -77z"/>
<path d="M5885 1450 c3 -5 8 -10 11 -10 2 0 4 5 4 10 0 6 -5 10 -11 10 -5 0
-7 -4 -4 -10z"/>
<path d="M3830 1370 c0 -63 2 -71 18 -68 14 3 17 14 17 68 0 54 -3 65 -17 68
-16 3 -18 -5 -18 -68z"/>
<path d="M4462 1410 c0 -19 2 -27 5 -17 2 9 2 25 0 35 -3 9 -5 1 -5 -18z"/>
<path d="M8582 1363 c3 -70 5 -78 23 -78 18 0 20 8 23 78 3 77 3 77 -23 77
-26 0 -26 0 -23 -77z"/>
<path d="M8784 1418 c3 -13 6 -48 6 -78 0 -49 3 -56 20 -57 18 -2 20 4 20 78
0 79 0 79 -26 79 -22 0 -25 -3 -20 -22z"/>
<path d="M9390 1370 c0 -56 3 -70 15 -70 11 0 15 13 15 54 0 58 -7 86 -21 86
-5 0 -9 -31 -9 -70z"/>
<path d="M9580 1398 c0 -78 11 -118 31 -118 17 0 19 9 19 80 0 79 0 80 -25 80
-23 0 -25 -4 -25 -42z"/>
<path d="M10670 1406 c0 -18 3 -54 6 -80 5 -36 11 -46 25 -46 17 0 19 9 19 80
0 79 0 80 -25 80 -22 0 -25 -4 -25 -34z"/>
<path d="M1857 1373 c-5 -62 2 -79 27 -70 12 5 16 21 16 67 0 52 -2 60 -19 60
-15 0 -19 -10 -24 -57z"/>
<path d="M2380 1365 c0 -49 3 -65 14 -65 17 0 26 31 26 88 0 35 -3 42 -20 42
-18 0 -20 -7 -20 -65z"/>
<path d="M4750 1359 c0 -62 2 -70 18 -67 14 3 18 16 20 71 3 62 1 67 -18 67
-18 0 -20 -6 -20 -71z"/>
<path d="M9284 1417 c-3 -8 -4 -41 -2 -73 3 -51 6 -59 23 -59 18 0 20 7 20 70
0 58 -3 70 -18 73 -9 2 -20 -3 -23 -11z"/>
<path d="M3322 1390 c0 -19 2 -27 5 -17 2 9 2 25 0 35 -3 9 -5 1 -5 -18z"/>
<path d="M3730 1390 c0 -16 2 -30 4 -30 2 0 6 14 8 30 3 17 1 30 -4 30 -4 0
-8 -13 -8 -30z"/>
<path d="M3930 1361 c0 -55 2 -61 20 -61 19 0 21 5 18 57 -2 46 -7 59 -20 61
-16 3 -18 -5 -18 -57z"/>
<path d="M6980 1355 c0 -58 2 -65 20 -65 18 0 20 7 20 65 0 58 -2 65 -20 65
-18 0 -20 -7 -20 -65z"/>
<path d="M7882 1353 c3 -60 5 -68 23 -68 18 0 20 8 23 68 3 66 3 67 -23 67
-26 0 -26 -1 -23 -67z"/>
<path d="M8490 1355 c0 -49 3 -65 14 -65 11 0 15 17 18 65 3 57 1 65 -14 65
-15 0 -18 -10 -18 -65z"/>
<path d="M9192 1358 c2 -38 8 -63 16 -66 9 -3 12 14 12 62 0 53 -3 66 -15 66
-13 0 -15 -11 -13 -62z"/>
<path d="M9685 1403 c2 -10 4 -20 5 -23 1 -3 1 -25 0 -49 -1 -32 2 -42 12 -39
8 3 14 26 16 66 3 56 1 62 -17 62 -13 0 -18 -6 -16 -17z"/>
<path d="M10974 1374 c3 -26 6 -56 6 -68 0 -18 2 -17 15 8 8 15 15 46 15 67 0
33 -3 39 -21 39 -20 0 -21 -4 -15 -46z"/>
<path d="M3620 1355 c0 -48 2 -55 20 -55 17 0 20 7 20 49 0 45 -10 61 -36 61
-2 0 -4 -25 -4 -55z"/>
<path d="M9486 1348 c8 -72 8 -73 29 -65 11 5 15 22 15 67 0 58 -1 60 -25 60
-26 0 -26 0 -19 -62z"/>
<path d="M10770 1383 c0 -64 12 -103 31 -103 17 0 19 8 19 65 0 63 -1 65 -25
65 -21 0 -25 -5 -25 -27z"/>
<path d="M1754 1386 c-10 -27 0 -81 16 -81 11 0 16 13 18 48 2 37 0 47 -13 47
-8 0 -18 -6 -21 -14z"/>
<path d="M2900 1373 c0 -18 2 -33 4 -33 9 0 13 39 5 51 -6 10 -9 4 -9 -18z"/>
<path d="M3221 1400 c-1 -3 -5 -25 -7 -50 -4 -34 -2 -42 6 -34 6 6 10 29 7 50
-2 22 -5 37 -6 34z"/>
<path d="M8690 1345 c0 -42 3 -55 15 -55 12 0 15 13 15 55 0 42 -3 55 -15 55
-12 0 -15 -13 -15 -55z"/>
<path d="M2280 1348 c0 -23 3 -38 7 -34 11 11 13 76 3 76 -6 0 -10 -19 -10
-42z"/>
<path d="M10877 1373 c-2 -5 -2 -25 1 -46 3 -28 9 -37 20 -35 14 3 18 25 13
78 -1 12 -28 14 -34 3z"/>
<path d="M11372 1372 c-8 -5 -11 -24 -10 -48 3 -34 7 -39 28 -39 22 0 25 4 22
35 -4 59 -12 69 -40 52z"/>
<path d="M1646 1345 c-8 -32 -1 -44 22 -41 11 2 18 13 20 34 3 26 0 32 -16 32
-13 0 -22 -9 -26 -25z"/>
<path d="M2066 1361 c-9 -15 13 -63 27 -58 19 6 15 61 -5 65 -9 2 -19 -1 -22
-7z"/>
<path d="M8382 1328 c3 -36 7 -44 26 -46 20 -3 22 1 22 42 0 43 -2 46 -25 46
-24 0 -26 -3 -23 -42z"/>
<path d="M9792 1333 c2 -21 8 -38 13 -38 6 0 11 17 13 38 3 29 0 37 -13 37
-13 0 -16 -8 -13 -37z"/>
<path d="M11070 1341 c0 -39 9 -61 26 -61 10 0 14 13 14 45 0 38 -3 45 -20 45
-15 0 -20 -7 -20 -29z"/>
<path d="M2180 1334 c0 -14 4 -23 10 -19 6 3 10 15 10 26 0 10 -4 19 -10 19
-5 0 -10 -12 -10 -26z"/>
<path d="M4452 1330 c0 -19 2 -27 5 -17 2 9 2 25 0 35 -3 9 -5 1 -5 -18z"/>
<path d="M3731 1334 c0 -11 3 -14 6 -6 3 7 2 16 -1 19 -3 4 -6 -2 -5 -13z"/>
<path d="M8284 1336 c-10 -26 1 -51 24 -54 19 -3 22 1 22 32 0 30 -4 36 -20
36 -11 0 -23 -6 -26 -14z"/>
<path d="M11269 1345 c-3 -2 -4 -19 -1 -35 4 -25 9 -30 26 -28 30 4 31 62 1
66 -12 2 -23 0 -26 -3z"/>
<path d="M3316 1332 c-3 -6 -1 -14 5 -17 15 -10 25 3 12 16 -7 7 -13 7 -17 1z"/>
<path d="M4141 1324 c0 -11 3 -14 6 -6 3 7 2 16 -1 19 -3 4 -6 -2 -5 -13z"/>
<path d="M9890 1315 c0 -14 6 -25 13 -25 20 0 25 9 20 31 -8 28 -33 24 -33 -6z"/>
<path d="M11170 1321 c0 -21 23 -45 33 -34 4 3 7 17 7 30 0 16 -6 23 -20 23
-13 0 -20 -7 -20 -19z"/>
<path d="M11470 1316 c0 -23 22 -41 34 -29 3 4 6 17 6 30 0 16 -6 23 -20 23
-14 0 -20 -7 -20 -24z"/>
<path d="M11569 1338 c-7 -23 -5 -39 7 -48 18 -16 34 -4 34 26 0 17 -5 24 -20
24 -11 0 -20 -1 -21 -2z"/>
<path d="M3520 1320 c0 -5 7 -10 15 -10 8 0 15 5 15 10 0 6 -7 10 -15 10 -8 0
-15 -4 -15 -10z"/>
<path d="M4961 1314 c0 -11 3 -14 6 -6 3 7 2 16 -1 19 -3 4 -6 -2 -5 -13z"/>
<path d="M12052 1308 c-30 -30 3 -87 39 -68 23 13 25 43 3 64 -19 19 -26 20
-42 4z m33 -31 c0 -26 -20 -25 -23 2 -3 16 1 22 10 19 7 -3 13 -12 13 -21z"/>
<path d="M12124 1305 c-7 -18 3 -35 22 -35 17 0 19 -16 2 -23 -7 -3 -3 -6 10
-6 30 -1 31 39 1 46 -21 6 -21 7 -4 20 18 12 18 13 -3 13 -13 0 -25 -7 -28
-15z"/>
<path d="M11875 1275 c1 -19 6 -35 11 -35 5 0 9 5 8 10 -1 6 -2 21 -2 35 -1
14 -6 25 -10 25 -5 0 -8 -16 -7 -35z"/>
<path d="M11930 1281 c0 -19 7 -34 18 -40 26 -14 44 2 40 35 -2 23 -9 30 -30
32 -25 3 -28 0 -28 -27z m47 3 c3 -9 0 -20 -8 -25 -14 -8 -31 18 -22 34 7 12
23 8 30 -9z"/>
<path d="M12220 1265 c0 -8 5 -15 10 -15 6 0 10 7 10 15 0 8 -4 15 -10 15 -5
0 -10 -7 -10 -15z"/>
<path d="M11885 973 c2 -26 8 -39 19 -41 16 -4 16 14 0 66 -8 27 -21 10 -19
-25z"/>
<path d="M11949 1008 c-18 -59 25 -107 51 -58 16 30 3 60 -26 60 -13 0 -24 -1
-25 -2z m37 -44 c-5 -13 -10 -14 -18 -6 -6 6 -8 18 -4 28 5 13 10 14 18 6 6
-6 8 -18 4 -28z"/>
<path d="M12024 996 c-9 -22 -1 -48 18 -60 23 -14 49 19 38 49 -9 24 -48 32
-56 11z m41 -36 c-3 -6 -10 -10 -16 -10 -10 0 -12 33 -2 44 9 9 26 -22 18 -34z"/>
<path d="M12140 975 c0 -23 6 -38 15 -41 23 -9 46 16 43 45 -2 20 -9 27 -30
29 -26 3 -28 1 -28 -33z m40 -6 c0 -20 -15 -26 -25 -9 -9 15 3 43 15 35 5 -3
10 -15 10 -26z"/>
<path d="M12216 995 c-8 -21 11 -65 28 -65 22 0 39 28 32 55 -7 29 -50 36 -60
10z m41 -29 c-4 -9 -11 -16 -17 -16 -11 0 -14 33 -3 44 11 10 26 -11 20 -28z"/>
<path d="M1860 930 c0 -19 3 -21 12 -12 9 9 9 15 0 24 -9 9 -12 7 -12 -12z"/>
<path d="M1995 941 c-3 -5 -1 -12 4 -15 5 -3 11 1 15 9 6 16 -9 21 -19 6z"/>
<path d="M2223 924 c-12 -26 -12 -26 7 -9 11 10 17 22 14 26 -7 12 -7 12 -21
-17z"/>
<path d="M1654 924 c3 -9 6 -18 6 -20 0 -2 4 -4 8 -4 4 0 8 9 8 20 0 11 -7 20
-14 20 -9 0 -12 -6 -8 -16z"/>
<path d="M1944 923 c-10 -15 -13 -16 -28 -4 -14 11 -16 11 -16 -2 0 -9 12 -16
30 -19 26 -4 30 -1 30 19 0 28 -2 28 -16 6z"/>
<path d="M2370 923 c0 -13 5 -23 10 -23 13 0 13 11 0 30 -8 12 -10 11 -10 -7z"/>
<path d="M2571 924 c0 -11 3 -14 6 -6 3 7 2 16 -1 19 -3 4 -6 -2 -5 -13z"/>
<path d="M2687 920 c3 -11 8 -20 12 -20 4 0 7 9 7 20 0 11 -6 20 -12 20 -7 0
-10 -8 -7 -20z"/>
<path d="M2896 925 c-23 -23 -20 -38 4 -25 11 6 25 8 31 4 7 -4 10 1 7 11 -4
25 -23 29 -42 10z"/>
<path d="M3035 930 c-3 -5 -1 -18 4 -27 6 -10 11 -13 11 -6 0 6 3 18 6 27 7
17 -11 22 -21 6z"/>
<path d="M1711 915 c5 -23 40 -27 47 -6 3 9 0 11 -7 7 -7 -4 -19 -2 -28 5 -13
11 -15 11 -12 -6z"/>
<path d="M1791 914 c0 -11 3 -14 6 -6 3 7 2 16 -1 19 -3 4 -6 -2 -5 -13z"/>
<path d="M2620 918 c0 -9 -6 -19 -12 -21 -10 -4 -10 -6 0 -6 14 -1 28 26 18
36 -3 4 -6 -1 -6 -9z"/>
<path d="M1587 906 c-16 -12 -16 -13 7 -13 14 0 27 6 30 13 7 18 -14 17 -37 0z"/>
<path d="M2411 904 c0 -11 3 -14 6 -6 3 7 2 16 -1 19 -3 4 -6 -2 -5 -13z"/>
<path d="M11242 897 c-47 -50 -65 -114 -73 -263 -7 -148 -19 -189 -63 -225
l-21 -18 22 6 c37 9 63 63 74 158 6 47 8 93 5 100 -16 44 50 244 86 258 7 3 8
6 2 6 -6 1 -20 -9 -32 -22z"/>
<path d="M11388 913 c7 -3 16 -2 19 1 4 3 -2 6 -13 5 -11 0 -14 -3 -6 -6z"/>
<path d="M4491 864 c0 -11 3 -14 6 -6 3 7 2 16 -1 19 -3 4 -6 -2 -5 -13z"/>
<path d="M10410 865 c7 -8 18 -15 24 -15 6 0 39 -22 73 -50 72 -58 100 -110
137 -248 35 -132 67 -179 136 -197 18 -4 13 1 -16 19 -43 27 -73 76 -94 156
-42 154 -65 203 -127 262 -36 34 -85 66 -127 81 -16 6 -17 5 -6 -8z"/>
<path d="M6854 827 c16 -20 30 -37 33 -37 7 0 -36 58 -49 66 -7 4 1 -9 16 -29z"/>
<path d="M6066 825 c-3 -9 -5 -33 -5 -53 2 -33 2 -32 9 13 8 53 6 66 -4 40z"/>
<path d="M6566 779 c-3 -17 -5 -68 -5 -113 l2 -81 8 110 c8 113 6 140 -5 84z"/>
<path d="M4503 740 c0 -30 2 -43 4 -27 2 15 2 39 0 55 -2 15 -4 2 -4 -28z"/>
<path d="M6356 777 c3 -10 9 -15 12 -12 3 3 0 11 -7 18 -10 9 -11 8 -5 -6z"/>
<path d="M9926 757 c-9 -12 -25 -63 -37 -112 -11 -50 -27 -105 -35 -124 -19
-44 -18 -48 5 -20 22 29 28 47 51 161 10 49 24 96 31 104 6 8 9 14 5 14 -3 0
-12 -10 -20 -23z"/>
<path d="M6910 730 c6 -11 13 -20 16 -20 2 0 0 9 -6 20 -6 11 -13 20 -16 20
-2 0 0 -9 6 -20z"/>
<path d="M9000 703 c19 -15 56 -49 83 -76 26 -27 47 -47 47 -45 0 24 -130 148
-155 148 -5 0 6 -12 25 -27z"/>
<path d="M6380 711 c0 -6 4 -13 10 -16 6 -3 7 1 4 9 -7 18 -14 21 -14 7z"/>
<path d="M6930 694 c0 -12 52 -93 68 -106 14 -11 14 -9 -2 16 -10 16 -27 44
-38 63 -19 31 -28 40 -28 27z"/>
<path d="M7415 640 c2 -19 9 -70 16 -114 11 -76 9 -150 -6 -191 l-7 -20 17 20
c14 17 16 37 12 135 -3 65 -12 135 -21 160 -14 42 -15 42 -11 10z"/>
<path d="M7971 612 c-13 -31 -26 -63 -29 -71 -3 -8 -1 -12 5 -8 12 7 58 125
52 132 -3 2 -15 -22 -28 -53z"/>
<path d="M11892 638 c-19 -19 -14 -56 8 -68 28 -15 40 -5 40 35 0 21 -6 35
-16 39 -20 8 -18 8 -32 -6z m35 -42 c-4 -9 -11 -16 -17 -16 -11 0 -14 33 -3
44 11 10 26 -11 20 -28z"/>
<path d="M11972 638 c-28 -28 -3 -85 32 -72 27 10 15 84 -14 84 -3 0 -11 -5
-18 -12z m35 -24 c8 -20 -13 -42 -27 -28 -12 12 -3 44 11 44 5 0 12 -7 16 -16z"/>
<path d="M12080 631 c-13 -26 -13 -33 3 -55 12 -16 17 -17 36 -6 18 9 21 17
16 38 -11 43 -38 54 -55 23z m38 -30 c3 -16 -1 -22 -10 -19 -7 3 -15 15 -16
27 -3 16 1 22 10 19 7 -3 15 -15 16 -27z"/>
<path d="M12160 625 c0 -18 5 -25 20 -25 25 0 26 -17 3 -23 -14 -4 -13 -5 4
-6 12 0 25 4 28 9 8 13 -14 42 -25 35 -5 -3 -11 -1 -15 5 -3 5 1 10 9 10 9 0
16 5 16 10 0 6 -9 10 -20 10 -15 0 -20 -7 -20 -25z"/>
<path d="M2270 636 c0 -2 8 -10 18 -17 15 -13 16 -12 3 4 -13 16 -21 21 -21
13z"/>
<path d="M7570 633 c0 -4 19 -21 43 -37 l42 -30 -25 28 c-27 30 -60 52 -60 39z"/>
<path d="M4488 548 c-2 -46 0 -99 3 -118 4 -20 7 15 8 83 0 64 -1 117 -3 117
-3 0 -6 -37 -8 -82z"/>
<path d="M2640 594 c-11 -28 -13 -61 -4 -51 7 7 23 77 18 77 -3 0 -9 -12 -14
-26z"/>
<path d="M4945 610 c3 -5 8 -10 11 -10 2 0 4 5 4 10 0 6 -5 10 -11 10 -5 0 -7
-4 -4 -10z"/>
<path d="M12250 595 c0 -9 5 -15 11 -13 6 2 11 8 11 13 0 5 -5 11 -11 13 -6 2
-11 -4 -11 -13z"/>
<path d="M2335 565 c4 -11 11 -40 15 -65 l7 -45 2 51 c1 37 -4 55 -16 65 -15
13 -16 12 -8 -6z"/>
<path d="M4773 555 c-3 -9 -3 -18 -1 -21 3 -3 8 4 11 16 6 23 -1 27 -10 5z"/>
<path d="M7010 566 c0 -2 7 -7 16 -10 8 -3 12 -2 9 4 -6 10 -25 14 -25 6z"/>
<path d="M7662 548 c2 -6 20 -23 39 -37 l34 -25 -34 37 c-37 39 -45 45 -39 25z"/>
<path d="M9187 529 c12 -12 25 -20 28 -17 3 3 -7 13 -22 23 l-28 17 22 -23z"/>
<path d="M7105 471 c69 -71 107 -101 48 -38 -17 17 -41 45 -54 60 -13 16 -33
33 -44 39 -11 6 11 -22 50 -61z"/>
<path d="M2610 478 c-7 -29 -20 -66 -28 -83 -19 -35 -41 -95 -36 -95 18 0 94
213 81 226 -3 3 -10 -19 -17 -48z"/>
<path d="M5530 491 c0 -5 5 -13 10 -16 6 -3 10 -2 10 4 0 5 -4 13 -10 16 -5 3
-10 2 -10 -4z"/>
<path d="M4751 468 c0 -9 -4 -25 -7 -35 -5 -17 -5 -17 6 0 6 10 9 25 7 35 -4
15 -5 15 -6 0z"/>
<path d="M2336 408 c-8 -33 -7 -128 2 -128 4 0 8 34 8 75 1 41 0 75 -1 75 -2
0 -5 -10 -9 -22z"/>
<path d="M5193 406 c15 -14 33 -26 40 -26 13 1 -16 26 -48 41 -13 7 -10 1 8
-15z"/>
<path d="M4720 381 c0 -4 -11 -25 -25 -45 -26 -38 -21 -50 6 -13 18 24 33 67
25 67 -3 0 -6 -4 -6 -9z"/>
<path d="M7250 325 c30 -30 57 -55 59 -55 3 0 -19 25 -49 55 -30 30 -57 55
-59 55 -3 0 19 -25 49 -55z"/>
<path d="M4511 332 c-1 -18 25 -66 45 -83 11 -9 9 -1 -8 26 -14 22 -27 47 -31
55 -4 10 -6 11 -6 2z"/>
<path d="M11904 276 c-3 -8 -4 -25 -2 -38 2 -17 9 -23 28 -23 20 0 26 6 28 29
5 39 -41 66 -54 32z m38 -38 c-16 -16 -35 3 -26 26 6 16 8 16 22 2 13 -12 14
-18 4 -28z"/>
<path d="M11984 276 c-3 -8 -4 -25 -2 -38 2 -17 9 -23 28 -23 22 0 25 4 25 35
0 29 -4 36 -23 38 -13 2 -24 -3 -28 -12z m36 -26 c0 -11 -7 -20 -15 -20 -15 0
-21 21 -8 33 12 13 23 7 23 -13z"/>
<path d="M12094 276 c-11 -28 1 -61 22 -64 31 -4 50 23 36 53 -13 27 -49 34
-58 11z m41 -26 c0 -7 -6 -15 -12 -17 -8 -3 -13 4 -13 17 0 13 5 20 13 18 6
-3 12 -11 12 -18z"/>
<path d="M12174 276 c-3 -8 -4 -25 -2 -38 2 -17 9 -23 28 -23 22 0 25 4 25 35
0 29 -4 36 -23 38 -13 2 -24 -3 -28 -12z m42 -17 c8 -14 -11 -33 -25 -25 -11
7 -4 36 9 36 5 0 12 -5 16 -11z"/>
</g>
</svg>
